<svg width="19" height="31" viewBox="0 0 19 31" fill="none" xmlns="http://www.w3.org/2000/svg">
<path d="M7.56252 5.32812H0.781263C0.647387 5.32812 0.539062 5.43645 0.539062 5.57033V12.836C0.539062 12.9699 0.647387 13.0782 0.781263 13.0782C0.91514 13.0782 1.02346 12.9698 1.02346 12.836V5.81253H7.32032V12.8359C7.32032 12.9698 7.42865 13.0781 7.56252 13.0781C7.6964 13.0781 7.80466 12.9698 7.80472 12.836V5.57033C7.80472 5.43645 7.6964 5.32812 7.56252 5.32812Z" fill="#3D3F47"/>
<path d="M1.75001 0C1.61614 0 1.50781 0.108324 1.50781 0.242201V5.08591C1.50781 5.21979 1.61614 5.32811 1.75001 5.32811C1.88389 5.32811 1.99221 5.21979 1.99221 5.08597V0.242201C1.99221 0.108324 1.88389 0 1.75001 0Z" fill="#3D3F47"/>
<path d="M6.59373 0H1.74995C1.61608 0 1.50775 0.108324 1.50775 0.242201C1.50775 0.376077 1.61608 0.484401 1.74995 0.484401H6.59373C6.7276 0.484401 6.83593 0.376077 6.83593 0.242201C6.83593 0.108324 6.7276 0 6.59373 0Z" fill="#3D3F47"/>
<path d="M6.5937 0C6.45983 0 6.3515 0.108324 6.3515 0.242201V5.08591C6.3515 5.21979 6.45989 5.32811 6.5937 5.32811C6.72758 5.32811 6.8359 5.21979 6.8359 5.08597V0.242201C6.8359 0.108324 6.72758 0 6.5937 0Z" fill="#3D3F47"/>
<path d="M3.68751 1.93742H2.71876C2.58489 1.93742 2.47656 2.04581 2.47656 2.17962V3.14843C2.47656 3.2823 2.58489 3.39063 2.71876 3.39063H3.68751C3.82138 3.39063 3.92971 3.2823 3.92971 3.14843V2.17962C3.92971 2.04575 3.82138 1.93742 3.68751 1.93742ZM3.44537 2.90629H2.96096V2.42189H3.44537V2.90629Z" fill="#3D3F47"/>
<path d="M5.62494 1.93742H4.6562C4.52233 1.93742 4.414 2.04581 4.414 2.17962V3.14843C4.414 3.2823 4.52233 3.39063 4.6562 3.39063H5.62494C5.75882 3.39063 5.86714 3.2823 5.86714 3.14843V2.17962C5.86714 2.04575 5.75882 1.93742 5.62494 1.93742ZM5.3828 2.90629H4.8984V2.42189H5.3828V2.90629Z" fill="#3D3F47"/>
<path d="M1.75001 13.5625C1.34934 13.5625 1.02346 13.2365 1.02346 12.8359C1.02346 12.702 0.91514 12.5937 0.781263 12.5937C0.647387 12.5937 0.539062 12.702 0.539062 12.8359C0.539062 13.5038 1.08232 14.0469 1.75001 14.0469C1.88388 14.0469 1.99221 13.9385 1.99221 13.8047C1.99221 13.6708 1.88388 13.5625 1.75001 13.5625Z" fill="#3D3F47"/>
<path d="M7.56251 12.5937C7.42863 12.5937 7.3203 12.702 7.3203 12.8359C7.3203 13.2365 6.99436 13.5625 6.5937 13.5625C6.45983 13.5625 6.3515 13.6708 6.3515 13.8047C6.3515 13.9385 6.45989 14.0469 6.5937 14.0469C7.26139 14.0469 7.80465 13.5038 7.80471 12.8359C7.80471 12.702 7.69638 12.5937 7.56251 12.5937Z" fill="#3D3F47"/>
<path d="M6.59373 13.5625H1.74995C1.61608 13.5625 1.50775 13.6708 1.50775 13.8047C1.50775 13.9385 1.61608 14.0469 1.74995 14.0469H6.59373C6.7276 14.0469 6.83593 13.9385 6.83593 13.8047C6.83593 13.6708 6.7276 13.5625 6.59373 13.5625Z" fill="#3D3F47"/>
<path d="M2.71875 14.0468C2.58488 14.0468 2.47656 14.1552 2.47656 14.289V14.7734C2.47656 14.9073 2.58488 15.0156 2.71875 15.0156C2.85262 15.0156 2.96094 14.9073 2.96094 14.7734V14.289C2.96094 14.1552 2.85262 14.0468 2.71875 14.0468Z" fill="#3D3F47"/>
<path d="M5.62494 14.0468C5.49107 14.0468 5.38275 14.1552 5.38275 14.289V14.7734C5.38275 14.9073 5.49107 15.0156 5.62494 15.0156C5.75881 15.0156 5.86713 14.9073 5.86713 14.7734V14.289C5.86713 14.1552 5.75881 14.0468 5.62494 14.0468Z" fill="#3D3F47"/>
<path d="M3.20312 15.0156C3.0695 15.0156 2.96094 14.9068 2.96094 14.7734C2.96094 14.6396 2.85262 14.5312 2.71875 14.5312C2.58488 14.5312 2.47656 14.6396 2.47656 14.7734C2.47656 15.1741 2.80249 15.4999 3.20312 15.4999C3.33693 15.4999 3.44525 15.3916 3.44531 15.2578C3.44531 15.1239 3.33693 15.0156 3.20312 15.0156Z" fill="#3D3F47"/>
<path d="M5.625 14.5312C5.49113 14.5312 5.38281 14.6395 5.38281 14.7734C5.38281 14.9068 5.27425 15.0156 5.14062 15.0156C5.00676 15.0156 4.89844 15.1239 4.89844 15.2578C4.89844 15.3917 5.00676 15.5 5.14062 15.5C5.54126 15.5 5.86713 15.1741 5.86719 14.7734C5.86719 14.6395 5.75887 14.5312 5.625 14.5312Z" fill="#3D3F47"/>
<path d="M5.14062 15.0156H3.20314C3.06926 15.0156 2.96094 15.1239 2.96094 15.2578C2.96094 15.3917 3.06926 15.5 3.20314 15.5H5.14062C5.2745 15.5 5.38282 15.3917 5.38282 15.2578C5.38282 15.1239 5.2745 15.0156 5.14062 15.0156Z" fill="#3D3F47"/>
<path d="M3.68745 15.5C3.55358 15.5 3.44525 15.6083 3.44525 15.7422V24.2187C3.44525 24.3526 3.55358 24.4609 3.68745 24.4609C3.82133 24.4609 3.92965 24.3526 3.92965 24.2187V15.7422C3.92965 15.6083 3.82133 15.5 3.68745 15.5Z" fill="#3D3F47"/>
<path d="M4.6562 15.5C4.52233 15.5 4.414 15.6083 4.414 15.7422V24.2187C4.414 24.3526 4.52233 24.4609 4.6562 24.4609C4.79008 24.4609 4.8984 24.3526 4.8984 24.2187V15.7422C4.8984 15.6083 4.79002 15.5 4.6562 15.5Z" fill="#3D3F47"/>
<path d="M16.7656 13.5625C16.6318 13.5625 16.5234 13.6708 16.5234 13.8047V21.0703C16.5234 21.2042 16.6318 21.3125 16.7656 21.3125C16.8995 21.3125 17.0078 21.2042 17.0078 21.0703V13.8047C17.0078 13.6708 16.8995 13.5625 16.7656 13.5625Z" fill="#3D3F47"/>
<path d="M15.7968 13.5625C15.663 13.5625 15.5546 13.6708 15.5546 13.8047V19.6172C15.5546 19.751 15.663 19.8594 15.7968 19.8594C15.9307 19.8594 16.039 19.751 16.039 19.6172V13.8047C16.039 13.6708 15.9307 13.5625 15.7968 13.5625Z" fill="#3D3F47"/>
<path d="M4.17189 6.78125C4.03801 6.78125 3.92969 6.88957 3.92969 7.02345V12.2712C3.92969 12.405 4.03801 12.5134 4.17189 12.5134C4.30576 12.5134 4.41403 12.405 4.41409 12.2712V7.02345C4.41409 6.88957 4.30576 6.78125 4.17189 6.78125Z" fill="#3D3F47"/>
<path d="M5.38283 8.23434C5.24895 8.23434 5.14062 8.34273 5.14062 8.47655V9.92969C5.14062 10.0636 5.24895 10.1719 5.38283 10.1719C5.51664 10.1719 5.62497 10.0636 5.62503 9.92969V8.47655C5.62503 8.34267 5.51664 8.23434 5.38283 8.23434Z" fill="#3D3F47"/>
<path d="M5.58427 9.79535C5.50979 9.68375 5.36011 9.65348 5.24846 9.7282L4.52186 10.2126C4.41051 10.2869 4.38041 10.4373 4.45471 10.5485C4.50133 10.6185 4.57823 10.6563 4.65646 10.6563C4.7026 10.6563 4.74916 10.643 4.79052 10.6156L5.51712 10.1312C5.62847 10.0569 5.65857 9.90646 5.58427 9.79535Z" fill="#3D3F47"/>
<path d="M2.96095 9.20309C2.82707 9.20309 2.71875 9.31142 2.71875 9.4453V10.8984C2.71875 11.0323 2.82707 11.1406 2.96095 11.1406C3.09483 11.1406 3.20315 11.0323 3.20315 10.8984V9.4453C3.20315 9.31142 3.09483 9.20309 2.96095 9.20309Z" fill="#3D3F47"/>
<path d="M3.82182 11.1814L3.09528 10.697C2.98363 10.6227 2.83322 10.653 2.75941 10.7641C2.68512 10.8753 2.71515 11.0256 2.82656 11.0999L3.5531 11.5843C3.59452 11.6118 3.64108 11.625 3.68722 11.625C3.76551 11.625 3.84235 11.5872 3.88897 11.5172C3.96327 11.4061 3.93324 11.2557 3.82182 11.1814Z" fill="#3D3F47"/>
<path d="M4.34307 6.85215C4.2485 6.75758 4.09519 6.75758 4.00062 6.85215L3.51624 7.33653C3.42167 7.43116 3.42167 7.5844 3.51624 7.67898C3.56353 7.72627 3.62553 7.74994 3.68747 7.74994C3.74941 7.74994 3.81141 7.72627 3.8587 7.67892L4.34307 7.1946C4.43765 7.10003 4.43765 6.94672 4.34307 6.85215Z" fill="#3D3F47"/>
<path d="M4.82732 7.33659L4.34301 6.85221C4.24844 6.75764 4.09513 6.75764 4.00056 6.85221C3.90598 6.94679 3.90598 7.10009 4.00056 7.19466L4.48493 7.67898C4.53222 7.72627 4.59422 7.74994 4.65616 7.74994C4.7181 7.74994 4.7801 7.72627 4.82732 7.67904C4.9219 7.58447 4.9219 7.43116 4.82732 7.33659Z" fill="#3D3F47"/>
<path d="M15.7968 12.5937C15.6634 12.5937 15.5546 12.4849 15.5546 12.3515C15.5546 12.2176 15.4464 12.1093 15.3125 12.1093C15.1786 12.1093 15.0703 12.2176 15.0703 12.3515C15.0703 12.7522 15.3962 13.078 15.7968 13.078C15.9307 13.078 16.039 12.9697 16.039 12.8359C16.039 12.702 15.9307 12.5937 15.7968 12.5937Z" fill="#3D3F47"/>
<path d="M17.2499 12.1093C17.1161 12.1093 17.0078 12.2176 17.0078 12.3515C17.0078 12.4849 16.8989 12.5937 16.7656 12.5937C16.6318 12.5937 16.5234 12.702 16.5234 12.8359C16.5234 12.9697 16.6318 13.078 16.7656 13.078C17.1662 13.078 17.4921 12.7522 17.4921 12.3515C17.4921 12.2176 17.3838 12.1093 17.2499 12.1093Z" fill="#3D3F47"/>
<path d="M16.7656 12.5937H15.7968C15.663 12.5937 15.5546 12.702 15.5546 12.8359C15.5546 12.9698 15.663 13.0781 15.7968 13.0781H16.7656C16.8994 13.0781 17.0078 12.9698 17.0078 12.8359C17.0078 12.702 16.8994 12.5937 16.7656 12.5937Z" fill="#3D3F47"/>
<path d="M18.2187 11.625H14.3438C14.2099 11.625 14.1016 11.7334 14.1016 11.8672C14.1016 12.001 14.2099 12.1094 14.3438 12.1094H18.2187C18.3526 12.1094 18.4609 12.001 18.4609 11.8672C18.4609 11.7333 18.3526 11.625 18.2187 11.625Z" fill="#3D3F47"/>
<path d="M18.2188 5.32812C18.0849 5.32812 17.9766 5.43645 17.9766 5.57033V11.8672C17.9766 12.0011 18.0849 12.1094 18.2188 12.1094C18.3526 12.1094 18.461 12.0011 18.461 11.8672V5.57033C18.461 5.43645 18.3526 5.32812 18.2188 5.32812Z" fill="#3D3F47"/>
<path d="M14.3438 5.32812C14.2099 5.32812 14.1016 5.43645 14.1016 5.57033V11.8672C14.1016 12.0011 14.2099 12.1094 14.3438 12.1094C14.4776 12.1094 14.586 12.0011 14.586 11.8672V5.57033C14.586 5.43645 14.4776 5.32812 14.3438 5.32812Z" fill="#3D3F47"/>
<path d="M18.2187 5.32812H14.3438C14.2099 5.32812 14.1016 5.43645 14.1016 5.57033C14.1016 5.7042 14.2099 5.81253 14.3438 5.81253H18.2187C18.3526 5.81253 18.4609 5.7042 18.4609 5.57033C18.4609 5.43645 18.3526 5.32812 18.2187 5.32812Z" fill="#3D3F47"/>
<path d="M14.8281 2.42188C14.6943 2.42188 14.586 2.5302 14.586 2.66408V5.0859C14.586 5.21978 14.6943 5.3281 14.8281 5.3281C14.962 5.3281 15.0703 5.21978 15.0703 5.08596V2.66408C15.0703 2.5302 14.962 2.42188 14.8281 2.42188Z" fill="#3D3F47"/>
<path d="M17.7344 2.42188H14.8281C14.6943 2.42188 14.586 2.5302 14.586 2.66408C14.586 2.79795 14.6943 2.90628 14.8281 2.90628H17.7344C17.8682 2.90628 17.9766 2.79795 17.9766 2.66408C17.9766 2.5302 17.8682 2.42188 17.7344 2.42188Z" fill="#3D3F47"/>
<path d="M17.7343 2.42188C17.6005 2.42188 17.4922 2.5302 17.4922 2.66408V5.0859C17.4922 5.21978 17.6005 5.3281 17.7343 5.3281C17.8682 5.3281 17.9765 5.21978 17.9765 5.08596V2.66408C17.9765 2.5302 17.8682 2.42188 17.7343 2.42188Z" fill="#3D3F47"/>
<path d="M15.7968 3.39062C15.663 3.39062 15.5546 3.49895 15.5546 3.63283V4.60157C15.5546 4.73544 15.663 4.84377 15.7968 4.84377C15.9307 4.84377 16.039 4.73544 16.039 4.60157V3.63283C16.039 3.49895 15.9307 3.39062 15.7968 3.39062Z" fill="#3D3F47"/>
<path d="M16.7656 3.39062C16.6318 3.39062 16.5234 3.49895 16.5234 3.63283V4.60157C16.5234 4.73544 16.6318 4.84377 16.7656 4.84377C16.8995 4.84377 17.0078 4.73544 17.0078 4.60157V3.63283C17.0078 3.49895 16.8995 3.39062 16.7656 3.39062Z" fill="#3D3F47"/>
<path d="M10.2264 17.4375C8.42756 17.4375 6.73276 18.1348 5.45419 19.4006C5.35936 19.4947 5.3584 19.6479 5.45255 19.743C5.54689 19.8376 5.69966 19.8395 5.7952 19.7449C6.98229 18.5695 8.55605 17.9219 10.2265 17.9219C13.6985 17.9219 16.5234 20.7468 16.5234 24.2188C16.5234 27.6908 13.6985 30.5157 10.2265 30.5157C6.75432 30.5157 3.92965 27.6908 3.92965 24.2188C3.92965 24.0849 3.82133 23.9766 3.68745 23.9766C3.55358 23.9766 3.44525 24.0849 3.44525 24.2188C3.44525 27.958 6.48729 31 10.2265 31C13.9658 31 17.0078 27.958 17.0077 24.2188C17.0077 20.4795 13.9657 17.4375 10.2264 17.4375Z" fill="#3D3F47"/>
<path d="M10.2265 18.4063C8.30962 18.4063 6.51661 19.3509 5.42985 20.9341C5.3762 21.0126 5.32413 21.0925 5.27448 21.1734C5.20448 21.287 5.23972 21.4365 5.35374 21.5064C5.46727 21.577 5.61623 21.5415 5.68695 21.427C5.73284 21.3527 5.78056 21.2794 5.82954 21.2075C6.82571 19.7567 8.46929 18.8906 10.2265 18.8906C13.1645 18.8906 15.5546 21.2808 15.5546 24.2187C15.5546 27.1567 13.1645 29.5469 10.2265 29.5469C7.28862 29.5469 4.8984 27.1567 4.8984 24.2187C4.8984 24.0849 4.79002 23.9765 4.6562 23.9765C4.52233 23.9765 4.414 24.0849 4.414 24.2187C4.414 27.424 7.02153 30.0312 10.2265 30.0312C13.4317 30.0312 16.039 27.424 16.039 24.2187C16.039 21.0136 13.4317 18.4063 10.2265 18.4063Z" fill="#3D3F47"/>
<path d="M17.25 7.75H15.3125C15.1786 7.75 15.0703 7.85832 15.0703 7.9922C15.0703 8.12608 15.1786 8.2344 15.3125 8.2344H17.25C17.3839 8.2344 17.4922 8.12608 17.4922 7.9922C17.4922 7.85832 17.3839 7.75 17.25 7.75Z" fill="#3D3F47"/>
<path d="M17.25 8.71875H15.3125C15.1786 8.71875 15.0703 8.82707 15.0703 8.96095C15.0703 9.09483 15.1786 9.20315 15.3125 9.20315H17.25C17.3839 9.20315 17.4922 9.09483 17.4922 8.96095C17.4922 8.82707 17.3839 8.71875 17.25 8.71875Z" fill="#3D3F47"/>
</svg>
