<svg width="28" height="30" viewBox="0 0 28 30" fill="none" xmlns="http://www.w3.org/2000/svg">
<path d="M21.5449 1.99805C21.709 1.66407 21.7324 1.28907 21.6094 0.937503C21.4863 0.585941 21.2402 0.304691 20.9062 0.140628C20.2207 -0.199215 19.3828 0.0878939 19.0488 0.773441L17.6484 3.63282C16.4648 3 15.1113 2.64258 13.6758 2.64258C12.2402 2.64258 10.8926 3 9.70313 3.63282L8.30273 0.7793C7.96289 0.0937533 7.13086 -0.193356 6.44531 0.146488C6.11133 0.31055 5.86523 0.5918 5.74219 0.943363C5.625 1.29493 5.64844 1.66993 5.80664 2.00391L7.45312 5.36719C6.04687 6.87891 5.19141 8.90625 5.19141 11.127C5.19141 11.373 5.39062 11.5723 5.63672 11.5723H21.709C21.9551 11.5723 22.1543 11.373 22.1543 11.127C22.1543 8.90625 21.293 6.87891 19.8926 5.36719L21.5449 1.99805ZM19.8457 1.16602C19.9688 0.919925 20.2676 0.814457 20.5195 0.937503C20.7715 1.06055 20.8711 1.35938 20.748 1.61133L19.2246 4.7168C18.9668 4.49414 18.6973 4.28321 18.4102 4.09571L19.8457 1.16602ZM6.83789 0.937503C7.08398 0.814457 7.38867 0.919925 7.51172 1.16602L8.94727 4.08985C8.66602 4.28321 8.39063 4.48828 8.13281 4.71094L6.60938 1.60547C6.48633 1.35938 6.5918 1.06055 6.83789 0.937503ZM6.09961 10.6758C6.32812 6.69727 9.63867 3.52735 13.6816 3.52735C17.7246 3.52735 21.0293 6.69727 21.2637 10.6758H6.09961Z" fill="#3D3F47"/>
<path d="M25.2598 12.5684C24.1055 12.5684 23.1621 13.5117 23.1621 14.666V21.7559C23.1621 22.9102 24.1055 23.8535 25.2598 23.8535C26.4141 23.8535 27.3574 22.9102 27.3574 21.7559V14.666C27.3574 13.5117 26.4141 12.5684 25.2598 12.5684ZM26.4727 21.7559C26.4727 22.4238 25.9277 22.9688 25.2598 22.9688C24.5918 22.9688 24.0469 22.4238 24.0469 21.7559V14.666C24.0469 13.998 24.5918 13.4531 25.2598 13.4531C25.9277 13.4531 26.4727 13.998 26.4727 14.666V21.7559Z" fill="#3D3F47"/>
<path d="M21.7148 12.5684H19.4121C19.166 12.5684 18.9668 12.7676 18.9668 13.0137C18.9668 13.2598 19.166 13.459 19.4121 13.459H21.2695V23.918H19.3477C19.1016 23.918 18.9023 24.1172 18.9023 24.3633V27.9082C18.9023 28.5762 18.3574 29.1211 17.6895 29.1211C17.0215 29.1211 16.4766 28.5762 16.4766 27.9082V24.3633C16.4766 24.1172 16.2773 23.918 16.0313 23.918H11.3027C11.0566 23.918 10.8574 24.1172 10.8574 24.3633V27.9082C10.8574 28.5762 10.3125 29.1211 9.64453 29.1211C8.97656 29.1211 8.43164 28.5762 8.43164 27.9082V24.3633C8.43164 24.1172 8.23242 23.918 7.98633 23.918H6.06445V13.4531H17.2324C17.4785 13.4531 17.6777 13.2539 17.6777 13.0078C17.6777 12.7617 17.4785 12.5625 17.2324 12.5625H5.64258C5.39648 12.5625 5.19727 12.7617 5.19727 13.0078V24.3516C5.19727 24.5977 5.39648 24.7969 5.64258 24.7969H7.56445V27.8965C7.56445 29.0508 8.50781 29.9941 9.66211 29.9941C10.8164 29.9941 11.7598 29.0508 11.7598 27.8965V24.7969H15.5977V27.8965C15.5977 29.0508 16.541 29.9941 17.6953 29.9941C18.8496 29.9941 19.793 29.0508 19.793 27.8965V24.7969H21.7148C21.9609 24.7969 22.1602 24.5977 22.1602 24.3516V13.0137C22.1602 12.7676 21.9609 12.5684 21.7148 12.5684Z" fill="#3D3F47"/>
<path d="M2.09766 12.5684C0.943359 12.5684 0 13.5117 0 14.666V21.7559C0 22.9102 0.943359 23.8535 2.09766 23.8535C3.25195 23.8535 4.19531 22.9102 4.19531 21.7559V14.666C4.19531 13.5117 3.25195 12.5684 2.09766 12.5684ZM3.31055 21.7559C3.31055 22.4238 2.76562 22.9688 2.09766 22.9688C1.42969 22.9688 0.884766 22.4238 0.884766 21.7559V14.666C0.884766 13.998 1.42969 13.4531 2.09766 13.4531C2.76562 13.4531 3.31055 13.998 3.31055 14.666V21.7559Z" fill="#3D3F47"/>
<path d="M9.89648 6.8965C9.12891 6.8965 8.50781 7.51759 8.50781 8.28517C8.50781 9.05275 9.12891 9.67384 9.89648 9.67384C10.6641 9.67384 11.2852 9.05275 11.2852 8.28517C11.2852 7.51759 10.6641 6.8965 9.89648 6.8965ZM9.89648 8.78908C9.62109 8.78908 9.39258 8.56642 9.39258 8.28517C9.39258 8.00392 9.61523 7.78127 9.89648 7.78127C10.1777 7.78127 10.4004 8.00392 10.4004 8.28517C10.4004 8.56642 10.1719 8.78908 9.89648 8.78908Z" fill="#3D3F47"/>
<path d="M17.4609 6.8965C16.6934 6.8965 16.0723 7.51759 16.0723 8.28517C16.0723 9.05275 16.6934 9.67384 17.4609 9.67384C18.2285 9.67384 18.8496 9.05275 18.8496 8.28517C18.8496 7.51759 18.2285 6.8965 17.4609 6.8965ZM17.4609 8.78908C17.1855 8.78908 16.957 8.56642 16.957 8.28517C16.957 8.00392 17.1797 7.78127 17.4609 7.78127C17.7422 7.78127 17.9648 8.00392 17.9648 8.28517C17.9648 8.56642 17.7363 8.78908 17.4609 8.78908Z" fill="#3D3F47"/>
</svg>
