<svg width="12" height="12" viewBox="0 0 12 12" fill="none" xmlns="http://www.w3.org/2000/svg">
<path d="M11.507 2.50322H2.12443L1.98496 0.949504C1.96215 0.69542 1.74921 0.500732 1.49411 0.500732H0.49282C0.220643 0.500732 0 0.721375 0 0.993552C0 1.26573 0.220643 1.48637 0.49282 1.48637H1.04356C1.34453 4.83947 0.566673 -3.82705 1.61037 7.80125C1.65059 8.25638 1.89651 8.75025 2.32015 9.08584C1.55635 10.0612 2.25423 11.4992 3.49667 11.4992C4.52789 11.4992 5.25522 10.4707 4.90159 9.49664H7.59886C7.24567 10.4695 7.97143 11.4992 9.00377 11.4992C9.82763 11.4992 10.4979 10.829 10.4979 10.0051C10.4979 9.18126 9.82763 8.511 9.00377 8.511H3.50001C3.12565 8.511 2.79943 8.28515 2.65862 7.95609L10.5345 7.49321C10.7496 7.48059 10.9315 7.32974 10.9837 7.12078L11.9851 3.11556C12.0627 2.80499 11.8276 2.50322 11.507 2.50322ZM3.49667 10.5136C3.21633 10.5136 2.98823 10.2855 2.98823 10.0051C2.98823 9.72475 3.21633 9.49664 3.49667 9.49664C3.77704 9.49664 4.00515 9.72475 4.00515 10.0051C4.00515 10.2855 3.77704 10.5136 3.49667 10.5136ZM9.00375 10.5136C8.72338 10.5136 8.49528 10.2855 8.49528 10.0051C8.49528 9.72475 8.72338 9.49664 9.00375 9.49664C9.28412 9.49664 9.51222 9.72475 9.51222 10.0051C9.51222 10.2855 9.28412 10.5136 9.00375 10.5136ZM10.1153 6.53052L2.52596 6.97653L2.2129 3.48884H10.8758L10.1153 6.53052Z" fill="white"/>
</svg>
