<svg width="35" height="43" viewBox="0 0 35 43" fill="none" xmlns="http://www.w3.org/2000/svg">
<path d="M33.3454 14.3228C33.0062 13.8177 32.6858 13.3406 32.5656 12.8907C32.4372 12.4105 32.4756 11.8184 32.5163 11.1918C32.5771 10.256 32.6398 9.28834 32.1616 8.46185C31.6759 7.62251 30.7991 7.19192 29.9511 6.77544C29.3941 6.50182 28.8679 6.2434 28.5261 5.90158C28.1843 5.55977 27.9258 5.0336 27.6522 4.47645C27.2358 3.62854 26.8052 2.75166 25.9658 2.26607C25.1393 1.78786 24.1717 1.8506 23.2359 1.91132C22.6091 1.95205 22.0171 1.99035 21.5369 1.86202C21.0869 1.74175 20.6099 1.42135 20.1048 1.08222C19.3496 0.574957 18.4935 0 17.5 0C16.5067 0 15.6505 0.574957 14.8952 1.08214C14.3901 1.42135 13.913 1.74175 13.463 1.86202C12.9828 1.99035 12.3908 1.95205 11.764 1.91132C10.8282 1.8506 9.86064 1.78786 9.03415 2.26607C8.19481 2.75175 7.76422 3.62854 7.34774 4.47645C7.07412 5.03352 6.8157 5.55977 6.47397 5.90158C6.13215 6.2434 5.60599 6.50182 5.04884 6.77536C4.20085 7.19175 3.32405 7.62242 2.83845 8.46176C2.36025 9.28834 2.42298 10.2559 2.4837 11.1917C2.52435 11.8184 2.56273 12.4104 2.4344 12.8907C2.31414 13.3407 1.99374 13.8178 1.65453 14.3229C1.14734 15.0782 0.572388 15.9343 0.572388 16.9277C0.572388 17.9212 1.14734 18.7772 1.65453 19.5326C1.99374 20.0377 2.31414 20.5148 2.4344 20.9648C2.56273 21.4451 2.52435 22.0371 2.4837 22.6638C2.42307 23.5995 2.36025 24.5671 2.83845 25.3936C3.32414 26.2329 4.20093 26.6635 5.04884 27.08C5.60591 27.3536 6.13215 27.612 6.47397 27.9539C6.81578 28.2957 7.07421 28.8218 7.34774 29.379C7.76414 30.227 8.19481 31.1038 9.03415 31.5894C9.86072 32.0676 10.8283 32.0048 11.7641 31.9441C11.9464 31.9323 12.1252 31.9212 12.2998 31.9138V41.6826C12.2998 42.1449 12.5353 42.5647 12.9297 42.8057C13.1413 42.9351 13.3778 43.0002 13.6152 43.0002C13.8202 43.0002 14.0258 42.9516 14.2164 42.8539L17.4728 41.1846C17.4898 41.1758 17.5102 41.1759 17.527 41.1846L20.7835 42.8539C21.1947 43.0647 21.6758 43.0468 22.0703 42.8057C22.4646 42.5646 22.7001 42.1448 22.7001 41.6825V37.822C22.7001 37.4749 22.4187 37.1936 22.0716 37.1936C21.7245 37.1936 21.4432 37.4749 21.4432 37.822V41.6825C21.4432 41.6924 21.4432 41.7158 21.4148 41.7332C21.3863 41.7506 21.3656 41.7399 21.3567 41.7354L18.1002 40.066C17.7243 39.8734 17.2754 39.8734 16.8994 40.066L13.6428 41.7354C13.634 41.7399 13.6132 41.7504 13.5848 41.7332C13.5565 41.7158 13.5565 41.6924 13.5565 41.6825V32.0231C13.9789 32.1599 14.4246 32.4573 14.8949 32.7731C15.6503 33.2803 16.5063 33.8553 17.4998 33.8553C18.4932 33.8553 19.3494 33.2803 20.1046 32.7731C20.5749 32.4573 21.0206 32.1599 21.4431 32.0231V34.9148C21.4431 35.2619 21.7244 35.5433 22.0715 35.5433C22.4187 35.5433 22.7 35.2619 22.7 34.9148V31.9136C22.8746 31.921 23.0534 31.9321 23.2358 31.944C24.1716 32.0047 25.1392 32.0673 25.9656 31.5892C26.805 31.1036 27.2356 30.2268 27.652 29.3789C27.9256 28.8218 28.184 28.2956 28.5259 27.9538C28.8677 27.612 29.3939 27.3535 29.951 27.0799C30.7989 26.6635 31.6757 26.2329 32.1614 25.3935C32.6396 24.5669 32.5768 23.5994 32.5161 22.6635C32.4754 22.0368 32.4371 21.4448 32.5654 20.9646C32.6857 20.5146 33.0061 20.0376 33.3453 19.5325C33.8525 18.7771 34.4275 17.921 34.4275 16.9276C34.4277 15.9342 33.8527 15.0781 33.3454 14.3228ZM32.302 18.8318C31.9204 19.4001 31.5257 19.9878 31.3513 20.6401C31.1697 21.32 31.2166 22.0444 31.2621 22.745C31.3129 23.5281 31.3609 24.2677 31.0737 24.7641C30.7792 25.273 30.1079 25.6027 29.3972 25.9518C28.7726 26.2585 28.1267 26.5757 27.6374 27.065C27.1481 27.5543 26.8309 28.2002 26.5241 28.8249C26.175 29.5356 25.8454 30.2069 25.3365 30.5014C24.8401 30.7884 24.1004 30.7405 23.3175 30.6897C22.6169 30.6443 21.8924 30.5973 21.2125 30.779C20.5602 30.9534 19.9725 31.348 19.4042 31.7297C18.739 32.1764 18.1107 32.5984 17.5 32.5984C16.8895 32.5984 16.2612 32.1765 15.5959 31.7297C15.0276 31.348 14.4399 30.9534 13.7876 30.779C13.4143 30.6792 13.0276 30.6484 12.6388 30.6484C12.3194 30.6484 11.9985 30.6692 11.6826 30.6897C10.8995 30.7405 10.1599 30.7885 9.66344 30.5014C9.15458 30.2069 8.82486 29.5355 8.47582 28.8249C8.16911 28.2002 7.8519 27.5543 7.36261 27.0651C6.87331 26.5758 6.22747 26.2586 5.6028 25.9518C4.89204 25.6028 4.22075 25.2731 3.9263 24.7642C3.63916 24.2679 3.68712 23.5282 3.73793 22.7452C3.78336 22.0446 3.83031 21.3201 3.64857 20.6403C3.47422 19.9879 3.07957 19.4002 2.69786 18.8319C2.25115 18.1667 1.82913 17.5384 1.82913 16.9278C1.82913 16.3172 2.25107 15.689 2.69786 15.0237C3.07957 14.4553 3.47422 13.8676 3.64857 13.2154C3.83031 12.5354 3.78328 11.8111 3.73793 11.1105C3.68712 10.3274 3.63916 9.58774 3.9263 9.09131C4.22075 8.58245 4.89212 8.25272 5.6028 7.90369C6.22747 7.59697 6.87331 7.27977 7.36261 6.79047C7.8519 6.30118 8.16911 5.65534 8.47582 5.03075C8.82486 4.31999 9.15458 3.64862 9.66344 3.35417C10.1597 3.06703 10.8994 3.11498 11.6825 3.16579C12.3831 3.21123 13.1076 3.25834 13.7874 3.07652C14.4397 2.90216 15.0274 2.50752 15.5958 2.12581C16.2612 1.67885 16.8895 1.25691 17.5 1.25691C18.1107 1.25691 18.7389 1.67885 19.4042 2.12564C19.9725 2.50735 20.5602 2.902 21.2125 3.07635C21.8923 3.25809 22.6168 3.21106 23.3174 3.16562C24.1003 3.11481 24.84 3.06677 25.3365 3.354C25.8454 3.64845 26.1752 4.31982 26.5241 5.03058C26.8309 5.65517 27.1481 6.3011 27.6374 6.7903C28.1267 7.2796 28.7726 7.59681 29.3972 7.90352C30.1079 8.25256 30.7793 8.58228 31.0737 9.09114C31.3609 9.58749 31.3129 10.3271 31.2621 11.1103C31.2166 11.8108 31.1697 12.5353 31.3514 13.2152C31.5257 13.8674 31.9204 14.4551 32.3021 15.0235C32.7488 15.6887 33.1708 16.317 33.1708 16.9276C33.1707 17.5382 32.7488 18.1666 32.302 18.8318Z" fill="#0066CC"/>
<path d="M17.5 4.93652C15.4029 4.93652 13.3388 5.48603 11.5309 6.52559C11.23 6.6986 11.1264 7.08274 11.2994 7.38366C11.4725 7.68458 11.8565 7.78821 12.1574 7.6152C13.775 6.68499 15.6225 6.19343 17.5 6.19343C23.419 6.19343 28.2343 11.0088 28.2343 16.9277C28.2343 22.8466 23.419 27.662 17.5 27.662C11.581 27.662 6.76571 22.8466 6.76571 16.9277C6.76571 14.0605 7.88229 11.3649 9.90631 9.34083L9.9892 9.25928C10.2365 9.01573 10.2396 8.61789 9.99609 8.37056C9.75245 8.12323 9.35462 8.1202 9.10737 8.36367L9.02112 8.44867C6.75622 10.7136 5.50897 13.7248 5.50897 16.9277C5.50897 23.5397 10.8882 28.9189 17.5002 28.9189C24.1121 28.9189 29.4914 23.5397 29.4914 16.9277C29.4912 10.3157 24.1119 4.93652 17.5 4.93652Z" fill="#0066CC"/>
<path d="M9.67889 19.9891C10.026 19.9891 10.3074 19.7078 10.3074 19.3606V14.4944C10.3074 14.1473 10.026 13.866 9.67889 13.866H8.63883C8.29172 13.866 8.01038 14.1473 8.01038 14.4944C8.01038 14.8415 8.29172 15.1229 8.63883 15.1229H9.05044V19.3606C9.05052 19.7078 9.33187 19.9891 9.67889 19.9891Z" fill="#0066CC"/>
<path d="M25.0587 13.5281C24.7387 13.3938 24.3703 13.5443 24.236 13.8644L21.8689 19.5046C21.7346 19.8247 21.8852 20.193 22.2052 20.3273C22.2847 20.3607 22.3671 20.3765 22.4482 20.3765C22.6937 20.3765 22.927 20.2316 23.0279 19.9911L25.395 14.3508C25.5293 14.0308 25.3788 13.6625 25.0587 13.5281Z" fill="#0066CC"/>
<path d="M21.7369 15.5661C22.1974 15.5661 22.5708 15.1927 22.5708 14.7322C22.5708 14.2716 22.1974 13.8982 21.7369 13.8982C21.2763 13.8982 20.9029 14.2716 20.9029 14.7322C20.9029 15.1927 21.2763 15.5661 21.7369 15.5661Z" fill="#0066CC"/>
<path d="M25.6546 19.9498C26.1092 19.8761 26.418 19.4479 26.3443 18.9933C26.2706 18.5387 25.8424 18.2299 25.3878 18.3036C24.9332 18.3773 24.6244 18.8055 24.6981 19.2601C24.7718 19.7147 25.2 20.0235 25.6546 19.9498Z" fill="#0066CC"/>
<path d="M13.0761 20.0886C14.1986 20.0886 15.1118 19.1754 15.1118 18.0529V15.8025C15.1118 14.68 14.1986 13.7668 13.0761 13.7668C11.9537 13.7668 11.0405 14.68 11.0405 15.8025V18.0529C11.0405 19.1754 11.9537 20.0886 13.0761 20.0886ZM12.2974 15.8025C12.2974 15.3731 12.6467 15.0238 13.0761 15.0238C13.5056 15.0238 13.8548 15.3731 13.8548 15.8025V18.053C13.8548 18.4824 13.5056 18.8318 13.0761 18.8318C12.6467 18.8318 12.2974 18.4824 12.2974 18.053V15.8025Z" fill="#0066CC"/>
<path d="M19.9581 18.0529V15.8025C19.9581 14.68 19.0448 13.7668 17.9224 13.7668C16.7999 13.7668 15.8868 14.68 15.8868 15.8025V18.0529C15.8868 19.1754 16.7999 20.0886 17.9224 20.0886C19.0448 20.0885 19.9581 19.1754 19.9581 18.0529ZM17.1437 18.0529V15.8025C17.1437 15.373 17.493 15.0238 17.9224 15.0238C18.3518 15.0238 18.7012 15.373 18.7012 15.8025V18.0529C18.7012 18.4823 18.3519 18.8317 17.9224 18.8317C17.4931 18.8316 17.1437 18.4822 17.1437 18.0529Z" fill="#0066CC"/>
</svg>
