<svg width="37" height="37" viewBox="0 0 37 37" fill="none" xmlns="http://www.w3.org/2000/svg">
<path d="M35.374 6.86523H26.8674C25.9709 6.86523 25.2414 7.59461 25.2414 8.49121V10.7217C25.2414 10.962 25.1375 11.1904 24.9564 11.3482L23.7511 12.3984C23.0303 13.0272 23.4793 14.2365 24.4394 14.2363H35.374C36.2705 14.2363 37 13.507 37 12.6104V8.49121C37 7.59461 36.2705 6.86523 35.374 6.86523ZM35.916 12.6104C35.916 12.9092 35.6729 13.1523 35.374 13.1523H24.5359L25.6684 12.1656C26.0859 11.8018 26.3254 11.2755 26.3254 10.7217V8.49121C26.3254 8.19232 26.5685 7.94922 26.8674 7.94922H35.374C35.6729 7.94922 35.916 8.19232 35.916 8.49121V12.6104ZM26.2686 30.9541C25.9692 30.9541 25.7266 31.1968 25.7266 31.4961V32.6641H21.1698V31.9867C21.1698 31.6874 20.9272 31.4447 20.6278 31.4447C20.3284 31.4447 20.0858 31.6874 20.0858 31.9867V36.458C20.0858 36.7573 20.3284 37 20.6278 37C20.9272 37 21.1698 36.7573 21.1698 36.458V33.748H25.7266V36.458C25.7266 36.7573 25.9692 37 26.2686 37C26.568 37 26.8105 36.7573 26.8105 36.458V31.4961C26.8105 31.1968 26.568 30.9541 26.2686 30.9541ZM16.4698 12.0701C16.7692 12.0701 17.0118 11.8274 17.0118 11.5281V10.3023C17.0118 10.0029 16.7692 9.76027 16.4698 9.76027C16.1705 9.76027 15.9278 10.0029 15.9278 10.3023V11.5281C15.9278 11.8275 16.1705 12.0701 16.4698 12.0701ZM33.2887 10.0088C32.9894 10.0088 32.7467 10.2515 32.7467 10.5508C32.7467 10.8501 32.9894 11.0928 33.2887 11.0928C33.5881 11.0928 33.8307 10.8501 33.8307 10.5508C33.8307 10.2515 33.5881 10.0088 33.2887 10.0088ZM31.1208 10.0088C30.8214 10.0088 30.5788 10.2515 30.5788 10.5508C30.5788 10.8501 30.8214 11.0928 31.1208 11.0928C31.4201 11.0928 31.6628 10.8501 31.6628 10.5508C31.6628 10.2515 31.4201 10.0088 31.1208 10.0088ZM10.8827 10.3023C10.8827 10.003 10.64 9.76034 10.3407 9.76034C10.0414 9.76034 9.79871 10.003 9.79871 10.3023V11.5282C9.79871 11.8275 10.0414 12.0702 10.3407 12.0702C10.64 12.0702 10.8827 11.8275 10.8827 11.5282V10.3023ZM23.8952 23.3328L17.4859 20.5151C17.1581 20.371 16.9463 20.0464 16.9463 19.6881V18.4183C18.4957 17.4869 19.6507 15.964 20.0969 14.1642H20.952C21.8485 14.1642 22.5779 13.4348 22.5779 12.5382V9.53993C22.5779 8.64333 21.8485 7.91395 20.952 7.91395H20.299V3.40458C20.299 1.52726 18.7716 0 16.8943 0H9.91622C8.0389 0 6.51164 1.52726 6.51164 3.40458V7.91381H5.85857C4.96197 7.91381 4.2326 8.64319 4.2326 9.53978V12.5381C4.2326 13.4347 4.96197 14.1641 5.85857 14.1641H6.71377C7.15993 15.9638 8.31481 17.4868 9.86426 18.4182V19.688C9.86426 20.0463 9.65245 20.371 9.32451 20.5151L2.91527 23.3327C1.14433 24.1113 0 25.8642 0 27.7984V36.458C0 36.7573 0.242668 37 0.541992 37C0.841316 37 1.08398 36.7573 1.08398 36.458V33.748H5.64077V36.458C5.64077 36.7573 5.88343 37 6.18276 37C6.48208 37 6.72475 36.7573 6.72475 36.458V31.9867C6.72475 31.6874 6.48208 31.4447 6.18276 31.4447C5.88343 31.4447 5.64077 31.6874 5.64077 31.9867V32.6641H1.08398V27.7984C1.08398 26.2941 1.97408 24.9306 3.35154 24.325L9.0835 21.8051C10.2172 22.9699 11.7702 23.6309 13.4053 23.6309C15.0404 23.6309 16.5933 22.9699 17.727 21.8051L23.4589 24.325C24.8365 24.9306 25.7266 26.2941 25.7266 27.7984V28.9668C25.7266 29.2661 25.9692 29.5088 26.2686 29.5088C26.568 29.5088 26.8105 29.2661 26.8105 28.9668V27.7984C26.8105 25.8642 25.6662 24.1113 23.8952 23.3328ZM20.299 12.5057V8.99779H20.952C21.2509 8.99779 21.494 9.24089 21.494 9.53978V12.5381C21.494 12.837 21.2509 13.0801 20.952 13.0801H20.2748C20.2905 12.8907 20.299 12.6992 20.299 12.5057ZM5.85857 13.0801C5.55968 13.0801 5.31658 12.837 5.31658 12.5381V9.53978C5.31658 9.24089 5.55968 8.99779 5.85857 8.99779H6.51164V12.5057C6.51164 12.6992 6.52002 12.8906 6.53578 13.0801H5.85857ZM7.59562 12.5057C7.62055 12.4647 7.53875 8.98377 7.62923 8.97893C8.7591 8.91859 9.86953 8.72383 10.9297 8.40008C11.2159 8.31271 11.3771 8.0097 11.2897 7.72346C11.2023 7.43722 10.8995 7.27592 10.6131 7.36343C9.6445 7.65922 8.62938 7.83771 7.59555 7.89488V3.40458C7.59555 2.12497 8.63654 1.08398 9.91614 1.08398H16.8943C18.1739 1.08398 19.2149 2.12497 19.2149 3.40458V7.68971C18.6901 7.46865 18.2005 7.17793 17.7563 6.8205C17.168 6.34716 16.6771 5.77438 16.297 5.11821C16.0394 4.67349 15.4196 4.57217 15.0341 4.90828C14.3627 5.49356 13.629 6.00397 12.8533 6.42521C12.5903 6.56808 12.4928 6.8971 12.6357 7.16015C12.7786 7.4232 13.1075 7.52068 13.3707 7.37774C14.1283 6.96626 14.8489 6.47702 15.5167 5.92108C15.9391 6.58535 16.4628 7.17092 17.0767 7.66493C17.7111 8.17556 18.4235 8.57251 19.1938 8.84466C19.2518 8.86519 19.1952 12.4689 19.2148 12.5056C19.2148 12.8084 19.1914 13.1057 19.1465 13.3961C18.7718 13.8561 18.1551 14.4369 17.2413 14.7936C16.8023 14.965 16.3436 15.0656 15.8726 15.0955C15.6468 14.4688 15.0464 14.0195 14.3428 14.0195H12.4678C11.5712 14.0195 10.8419 14.7489 10.8419 15.6455C10.8419 16.5421 11.5712 17.2715 12.4678 17.2715H14.3428C15.0518 17.2715 15.6558 16.8152 15.8777 16.181C16.4823 16.1494 17.0719 16.0235 17.6355 15.8035C17.9237 15.691 18.1871 15.5602 18.4285 15.419C17.4211 17.1491 15.5474 18.3154 13.4053 18.3154C10.2018 18.3154 7.59562 15.7092 7.59562 12.5057ZM14.8848 15.6455C14.8848 15.9444 14.6417 16.1875 14.3428 16.1875H12.4678C12.169 16.1875 11.9259 15.9444 11.9259 15.6455C11.9259 15.3466 12.169 15.1035 12.4678 15.1035H14.3428C14.6416 15.1035 14.8848 15.3466 14.8848 15.6455ZM13.4053 22.5469C12.1866 22.5469 11.0242 22.0979 10.1239 21.2991C10.6345 20.9305 10.9482 20.3344 10.9482 19.688V18.9464C11.7119 19.2387 12.5401 19.3993 13.4053 19.3993C14.2704 19.3993 15.0987 19.2387 15.8623 18.9464V19.688C15.8623 20.3345 16.1761 20.9306 16.6866 21.2991C15.7864 22.0979 14.624 22.5469 13.4053 22.5469ZM28.9528 10.0088C28.6535 10.0088 28.4108 10.2515 28.4108 10.5508C28.4108 10.8501 28.6535 11.0928 28.9528 11.0928C29.2521 11.0928 29.4948 10.8501 29.4948 10.5508C29.4948 10.2515 29.2521 10.0088 28.9528 10.0088Z" fill="#0066CC"/>
</svg>
