<svg width="17" height="25" viewBox="0 0 17 25" fill="none" xmlns="http://www.w3.org/2000/svg">
<path d="M8.08804 25H8.08667C7.81699 25 7.59839 24.7814 7.59839 24.5117C7.59839 24.242 7.81699 24.0234 8.08667 24.0234C8.35635 24.0234 8.57564 24.242 8.57564 24.5117C8.57564 24.7814 8.35771 25 8.08804 25Z" fill="#545454"/>
<path d="M15.8038 18.0295V16.0827C15.8038 16.08 15.8038 16.0773 15.8037 16.0746C15.7814 14.7204 15.2719 13.7184 14.2459 13.0114C13.3918 12.4228 12.3168 12.1331 11.2772 11.853C10.981 11.7732 10.6963 11.6965 10.4227 11.6147V10.5815C11.5365 9.82876 12.2704 8.55405 12.2704 7.11108V6.58804C12.3271 6.54546 12.3816 6.49878 12.4332 6.44731C12.9807 5.89985 13.0281 5.03911 12.5762 4.43691V2.47856C12.5762 1.11187 11.4643 0 10.0977 0H6.07422C4.70757 0 3.5957 1.11187 3.5957 2.47856V4.43696C3.1438 5.03916 3.19131 5.8999 3.73931 6.44795C3.79072 6.49922 3.84512 6.5457 3.90156 6.58818V7.11108C3.90156 8.55381 4.63535 9.82832 5.74927 10.5811V11.6147C5.47559 11.6965 5.19092 11.7732 4.89473 11.853C3.85513 12.1331 2.78013 12.4228 1.92598 13.0114C0.9 13.7184 0.390479 14.7204 0.368213 16.0746C0.368164 16.0773 0.368164 16.08 0.368164 16.0827V18.0295C0.140772 18.2592 0 18.5748 0 18.9228V20.3124C0 21.0128 0.569824 21.5827 1.27026 21.5827H2.48682C2.55088 21.5827 2.61421 21.5794 2.67671 21.5734V23.8488C2.67671 24.4836 3.19253 25 3.82656 25H5.89292C6.1626 25 6.3812 24.7814 6.3812 24.5118C6.3812 24.2421 6.1626 24.0235 5.89292 24.0235H3.82656C3.73262 24.0235 3.65327 23.9435 3.65327 23.8488V21.1979C4.13735 20.8396 4.45186 20.2647 4.45186 19.6176C4.45186 18.9705 4.1373 18.3957 3.65327 18.0374V16.5685C3.65327 16.4745 3.73262 16.3952 3.82656 16.3952H6.10498V19.3671C6.10498 19.5476 6.20459 19.7134 6.36392 19.7981C6.43584 19.8364 6.5146 19.8554 6.59321 19.8554C6.68872 19.8554 6.78394 19.8273 6.86607 19.772L8.08647 18.9498L9.30557 19.7719C9.45527 19.8729 9.64849 19.883 9.80781 19.7982C9.96724 19.7135 10.0668 19.5477 10.0668 19.3671V16.3952H12.3453C12.4399 16.3952 12.5199 16.4746 12.5199 16.5685V18.0364C12.0351 18.3946 11.72 18.97 11.72 19.6177C11.72 20.2654 12.0351 20.8407 12.5199 21.1989V23.8488C12.5199 23.9435 12.4399 24.0235 12.3453 24.0235H10.2789C10.0092 24.0235 9.79063 24.2421 9.79063 24.5118C9.79063 24.7815 10.0092 25.0001 10.2789 25.0001H12.3453C12.98 25.0001 13.4965 24.4836 13.4965 23.8488V21.5736C13.5585 21.5795 13.6214 21.5828 13.685 21.5828H14.9016C15.602 21.5828 16.1718 21.013 16.1718 20.3125V18.9229C16.1719 18.5749 16.0312 18.2592 15.8038 18.0295ZM4.57227 2.47856C4.57227 1.65034 5.24605 0.976562 6.07422 0.976562H10.0977C10.9258 0.976562 11.5996 1.65034 11.5996 2.47856V3.57231C10.5763 2.85659 9.36079 2.4709 8.08594 2.4709C6.81108 2.4709 5.59561 2.85654 4.57227 3.57231V2.47856ZM4.42925 5.75684C4.21021 5.53774 4.21021 5.18135 4.4292 4.96226L4.4293 4.96221C5.40605 3.98545 6.70469 3.44751 8.08594 3.44751C9.46719 3.44751 10.7658 3.98545 11.7426 4.96221L11.7427 4.96226C11.9617 5.18135 11.9617 5.53779 11.7433 5.75625C11.5243 5.97446 11.168 5.97451 10.9496 5.75684C10.1846 4.99185 9.16787 4.57056 8.08672 4.57056C7.00557 4.57056 5.98887 4.99185 5.22446 5.75625C5.00503 5.9749 4.6481 5.9749 4.42925 5.75684ZM4.87813 7.11108V6.89477C5.25459 6.88223 5.62739 6.73335 5.91436 6.44736C6.49487 5.86685 7.26631 5.54712 8.08662 5.54712C8.90693 5.54712 9.67842 5.8668 10.2595 6.44795C10.5458 6.73325 10.9178 6.88184 11.2938 6.89448V7.11113C11.2938 8.88037 9.85503 10.3197 8.08662 10.3197C6.31748 10.3197 4.87813 8.88032 4.87813 7.11108ZM9.44605 11.0682V11.9734C9.44605 12.723 8.83623 13.3329 8.08662 13.3329C7.33628 13.3329 6.72583 12.723 6.72583 11.9734V11.0679C7.15278 11.2151 7.6103 11.2962 8.08662 11.2962C8.56245 11.2962 9.01948 11.2152 9.44605 11.0682ZM1.27026 20.6062C1.1083 20.6062 0.976563 20.4744 0.976563 20.3124V18.9228C0.976563 18.7608 1.1083 18.6291 1.27026 18.6291H2.48682C3.03188 18.6291 3.47534 19.0726 3.47534 19.6176C3.47534 20.1627 3.03188 20.6062 2.48682 20.6062H1.27026ZM9.09033 18.4489L8.35962 17.9561C8.19468 17.8448 7.97871 17.8448 7.81377 17.956L7.08149 18.4494V16.3952H9.09033V18.4489ZM12.3453 15.4186H3.82656C3.19253 15.4186 2.67671 15.9344 2.67671 16.5685V17.6619C2.61421 17.6559 2.55088 17.6525 2.48682 17.6525H1.34468V16.0869C1.36245 15.0588 1.72329 14.337 2.48008 13.8155C3.19614 13.3221 4.18877 13.0546 5.14873 12.7959C5.37632 12.7346 5.60781 12.6718 5.83706 12.606C6.11387 13.5875 7.01719 14.3093 8.08657 14.3093C9.15537 14.3093 10.0582 13.5875 10.3348 12.606C10.564 12.6718 10.7955 12.7346 11.023 12.7959C11.983 13.0546 12.9757 13.322 13.6917 13.8155C14.4485 14.337 14.8094 15.0588 14.8271 16.0869V17.6525H13.6851C13.6214 17.6525 13.5586 17.6558 13.4965 17.6617V16.5685C13.4966 15.9344 12.9801 15.4186 12.3453 15.4186ZM15.1954 20.3124C15.1954 20.4744 15.0636 20.6062 14.9017 20.6062H13.6851C13.5271 20.6062 13.3782 20.568 13.2457 20.5019C13.2341 20.4954 13.222 20.4895 13.2098 20.484C12.9042 20.3156 12.6966 19.9905 12.6966 19.6177C12.6966 19.0726 13.14 18.6291 13.6851 18.6291H14.9016C15.0636 18.6291 15.1953 18.7609 15.1953 18.9228V20.3124H15.1954Z" fill="#545454"/>
</svg>
