<svg width="18" height="14" viewBox="0 0 18 14" fill="none" xmlns="http://www.w3.org/2000/svg">
<path d="M13.5946 8.70166C12.3435 8.70166 11.3257 9.71947 11.3257 10.9706C11.3257 12.2217 12.3435 13.2395 13.5946 13.2395C14.8459 13.2395 15.8635 12.2217 15.8635 10.9706C15.8635 9.71947 14.8457 8.70166 13.5946 8.70166ZM13.5946 12.105C12.969 12.105 12.4601 11.5962 12.4601 10.9706C12.4601 10.3449 12.969 9.83612 13.5946 9.83612C14.2202 9.83612 14.7291 10.3449 14.7291 10.9706C14.7291 11.5963 14.2202 12.105 13.5946 12.105Z" fill="black"/>
<path d="M5.8424 8.70166C4.59129 8.70166 3.57349 9.71947 3.57349 10.9706C3.57349 12.2217 4.59129 13.2395 5.8424 13.2395C7.09351 13.2395 8.11131 12.2217 8.11131 10.9706C8.11131 9.71947 7.09351 8.70166 5.8424 8.70166ZM5.8424 12.105C5.21676 12.105 4.70794 11.5962 4.70794 10.9706C4.70794 10.3449 5.21676 9.83612 5.8424 9.83612C6.46786 9.83612 6.97686 10.3449 6.97686 10.9706C6.97686 11.5963 6.46804 12.105 5.8424 12.105Z" fill="black"/>
<path d="M15.1225 2.20726C15.0261 2.01573 14.83 1.8949 14.6156 1.8949H11.6282V3.02935H14.2658L15.8103 6.10145L16.8242 5.59168L15.1225 2.20726Z" fill="black"/>
<path d="M11.8928 10.4223H7.60083V11.5568H11.8928V10.4223Z" fill="black"/>
<path d="M4.14099 10.4223H2.17463C1.86132 10.4223 1.60742 10.6762 1.60742 10.9895C1.60742 11.3028 1.86136 11.5567 2.17463 11.5567H4.14103C4.45434 11.5567 4.70824 11.3028 4.70824 10.9895C4.70824 10.6762 4.4543 10.4223 4.14099 10.4223Z" fill="black"/>
<path d="M17.8811 6.95461L16.7654 5.51763C16.6582 5.37922 16.4928 5.29829 16.3175 5.29829H12.1956V1.32771C12.1956 1.0144 11.9417 0.760498 11.6284 0.760498H2.17463C1.86132 0.760498 1.60742 1.01443 1.60742 1.32771C1.60742 1.64099 1.86136 1.89492 2.17463 1.89492H11.0612V5.8655C11.0612 6.17881 11.3151 6.43271 11.6284 6.43271H16.0397L16.8658 7.49682V10.4222H15.2965C14.9831 10.4222 14.7292 10.6761 14.7292 10.9894C14.7292 11.3027 14.9832 11.5566 15.2965 11.5566H17.433C17.7463 11.5566 18.0002 11.3027 18.0003 10.9894V7.30251C18.0003 7.17658 17.9583 7.05406 17.8811 6.95461Z" fill="black"/>
<path d="M4.10299 7.54834H1.49372C1.18041 7.54834 0.926514 7.80227 0.926514 8.11555C0.926514 8.42886 1.18045 8.68276 1.49372 8.68276H4.10295C4.41626 8.68276 4.67016 8.42883 4.67016 8.11555C4.6702 7.80227 4.41626 7.54834 4.10299 7.54834Z" fill="black"/>
<path d="M5.40756 5.31714H0.567211C0.253934 5.31714 0 5.57107 0 5.88438C0 6.1977 0.253934 6.4516 0.567211 6.4516H5.40756C5.72087 6.4516 5.97477 6.19766 5.97477 5.88438C5.97477 5.57111 5.72087 5.31714 5.40756 5.31714Z" fill="black"/>
<path d="M6.33407 3.08612H1.49372C1.18041 3.08612 0.926514 3.34005 0.926514 3.65333C0.926514 3.96664 1.18045 4.22054 1.49372 4.22054H6.33407C6.64738 4.22054 6.90128 3.96661 6.90128 3.65333C6.90132 3.34005 6.64738 3.08612 6.33407 3.08612Z" fill="black"/>
</svg>
