<svg width="43" height="37" viewBox="0 0 43 37" fill="none" xmlns="http://www.w3.org/2000/svg">
<path d="M41.0268 3.58198L33.5436 0.464391C32.7227 0.122491 31.7813 0.122575 30.9605 0.464475L27.3676 1.96099C27.0465 2.09486 26.8945 2.46356 27.0283 2.78471C27.1621 3.10587 27.5308 3.25788 27.8521 3.12401L31.4449 1.62741C31.9576 1.41375 32.5461 1.41367 33.0593 1.62732L40.542 4.74474C41.2698 5.04834 41.7402 5.73105 41.7402 6.4838V33.4218C41.7402 34.4693 40.8405 35.3215 39.7347 35.3215H38.7134C38.3655 35.3215 38.0835 35.6035 38.0835 35.9514C38.0835 36.2994 38.3655 36.5813 38.7134 36.5813H39.7347C41.5351 36.5813 43 35.164 43 33.4218V6.4838C43 5.22101 42.2255 4.08202 41.0268 3.58198Z" fill="#0066CC"/>
<path d="M35.968 35.3216H25.3843C25.8201 34.8263 26.0587 34.1978 26.0587 33.5328C26.0587 32.869 25.8184 32.2607 25.4208 31.7891C25.6715 31.6612 25.9036 31.4938 26.1086 31.289C26.6202 30.7772 26.9019 30.0969 26.9019 29.373C26.9019 28.683 26.6422 28.0528 26.216 27.5739C26.427 27.4544 26.6236 27.3062 26.7996 27.1301C27.3112 26.6185 27.593 25.9381 27.593 25.2141C27.593 24.5261 27.3349 23.8975 26.9111 23.419C27.1257 23.2986 27.3256 23.1486 27.5048 22.9698C28.0161 22.4573 28.2976 21.7771 28.2976 21.0543C28.2976 19.5599 27.0822 18.3441 25.5882 18.3441H22.7638V6.48384C22.7638 5.731 23.2342 5.04829 23.9617 4.74486L25.1073 4.26782C25.4285 4.13412 25.5804 3.76543 25.4467 3.44419C25.3129 3.12303 24.9442 2.97085 24.623 3.10481L23.477 3.58201C22.2785 4.08197 21.504 5.22105 21.504 6.48384V18.3442H18.8722C19.7486 15.5747 19.674 12.6844 18.6513 9.32981C18.4959 8.82179 18.1868 8.38667 17.7572 8.07148C17.3302 7.75821 16.8241 7.59251 16.2936 7.59251C15.6101 7.59251 14.9746 7.86546 14.5039 8.36105C14.0335 8.85656 13.794 9.50526 13.8295 10.1875C14.0264 13.975 12.2794 15.2786 9.86136 17.083C9.06527 17.677 8.1952 18.3267 7.34007 19.1235V18.2979C7.34007 17.95 7.05813 17.668 6.71018 17.668H0.629883C0.281936 17.668 0 17.95 0 18.2979V36.1622C0 36.5102 0.281936 36.7921 0.629883 36.7921H6.71035C7.0583 36.7921 7.34023 36.5102 7.34023 36.1622V34.5776C8.53659 34.6914 9.41037 34.9298 10.2593 35.5805C10.8166 36.0076 11.5036 36.2429 12.1937 36.2429H23.3024C23.7562 36.4641 24.2594 36.5813 24.7694 36.5813H35.9679C36.3159 36.5813 36.5978 36.2994 36.5978 35.9514C36.5978 35.6035 36.3158 35.3216 35.968 35.3216ZM11.0256 34.5806C9.83793 33.6704 8.56859 33.4175 7.34023 33.3115V25.9565C7.34023 25.6086 7.0583 25.3267 6.71035 25.3267C6.3624 25.3267 6.08047 25.6086 6.08047 25.9565V35.5324H1.25977V18.9279H6.08047V23.212C6.08047 23.56 6.3624 23.8419 6.71035 23.8419C7.0583 23.8419 7.34023 23.56 7.34023 23.212V20.9129C8.3939 19.7502 9.52215 18.9082 10.615 18.0927C13.0345 16.2873 15.3197 14.5819 15.0878 10.1222C15.0704 9.78837 15.1876 9.47099 15.4179 9.22853C15.6481 8.9859 15.9592 8.85236 16.2938 8.85236C16.5544 8.85236 16.8028 8.93358 17.0121 9.08727C17.2212 9.24062 17.3714 9.45193 17.4467 9.69792C18.4883 13.1148 18.472 15.9896 17.3953 18.745C17.3196 18.9389 17.3445 19.1576 17.4619 19.3295C17.5792 19.5014 17.7739 19.6042 17.982 19.6042H25.5884C26.3877 19.6042 27.038 20.2548 27.038 21.0546C27.038 21.4414 26.8871 21.8056 26.6141 22.0793C26.3394 22.3533 25.9753 22.5042 25.5884 22.5042H23.0008C22.6529 22.5042 22.3709 22.7861 22.3709 23.1341C22.3709 23.482 22.6529 23.764 23.0008 23.764H24.8837C25.683 23.764 26.3333 24.4146 26.3333 25.2145C26.3333 25.6019 26.1826 25.9659 25.9088 26.2396C25.6352 26.5134 25.2712 26.664 24.8837 26.664H23.0008C22.6529 26.664 22.3709 26.946 22.3709 27.2939C22.3709 27.6419 22.6529 27.9238 23.0008 27.9238H24.1925C24.9918 27.9238 25.6421 28.5741 25.6421 29.3734C25.6421 29.7607 25.4914 30.1248 25.2177 30.3986C24.9434 30.6728 24.5793 30.8238 24.1925 30.8238H23.3493H22.3095C21.9616 30.8238 21.6796 31.1057 21.6796 31.4537C21.6796 31.8016 21.9616 32.0835 22.3095 32.0835H23.3493C24.1486 32.0835 24.7989 32.7338 24.7989 33.5331C24.7989 33.9204 24.648 34.2849 24.375 34.5586C24.1192 34.8138 23.7151 34.9766 23.4127 34.982C23.3917 34.9823 12.1937 34.9835 12.1937 34.9835C11.7791 34.9831 11.3643 34.8402 11.0256 34.5806Z" fill="#0066CC"/>
<path d="M34.5253 6.76372C34.5253 5.44013 33.4485 4.36328 32.1249 4.36328C30.8013 4.36328 29.7244 5.44013 29.7244 6.76372C29.7244 8.08732 30.8013 9.16417 32.1249 9.16417C33.4485 9.16417 34.5253 8.08732 34.5253 6.76372ZM30.9842 6.76372C30.9842 6.13476 31.4959 5.62305 32.1249 5.62305C32.7538 5.62305 33.2655 6.13476 33.2655 6.76372C33.2655 7.39268 32.7538 7.9044 32.1249 7.9044C31.4959 7.9044 30.9842 7.39277 30.9842 6.76372Z" fill="#0066CC"/>
<path d="M32.5184 28.2562H31.3888C30.7937 28.2562 30.3097 27.7721 30.3097 27.177C30.3097 26.8291 30.0277 26.5471 29.6798 26.5471C29.3318 26.5471 29.0499 26.8291 29.0499 27.177C29.0499 28.4449 30.0641 29.4796 31.3237 29.5143V30.9083C31.3237 31.2562 31.6056 31.5382 31.9536 31.5382C32.3015 31.5382 32.5834 31.2562 32.5834 30.9083V29.5143C33.8431 29.4796 34.8573 28.4449 34.8573 27.177V26.305C34.8573 25.496 34.3404 24.7846 33.5709 24.5345L30.7255 23.6102C30.4768 23.5293 30.3097 23.2994 30.3097 23.0379V21.7893C30.3097 21.306 30.7028 20.9128 31.186 20.9128H32.7213C33.2045 20.9128 33.5976 21.306 33.5976 21.7893C33.5976 22.1372 33.8796 22.4191 34.2275 22.4191C34.5755 22.4191 34.8574 22.1372 34.8574 21.7893C34.8574 20.6114 33.8991 19.653 32.7213 19.653H32.5834V18.2607C32.5834 17.9128 32.3015 17.6309 31.9536 17.6309C31.6056 17.6309 31.3237 17.9128 31.3237 18.2607V19.653H31.1859C30.0081 19.653 29.0498 20.6113 29.0498 21.7893V23.0379C29.0498 23.8469 29.5667 24.5583 30.3362 24.8083L33.1815 25.7326C33.4303 25.8135 33.5975 26.0435 33.5975 26.305V27.177C33.5976 27.7721 33.1135 28.2562 32.5184 28.2562Z" fill="#0066CC"/>
</svg>
