<svg width="37" height="37" viewBox="0 0 37 37" fill="none" xmlns="http://www.w3.org/2000/svg">
<path d="M7.58255 26.6775C7.68777 26.7794 7.82363 26.8301 7.95942 26.8301C8.10113 26.8301 8.24262 26.7749 8.34893 26.665L14.3405 20.4748C14.5487 20.2598 14.5432 19.9167 14.328 19.7085C14.1129 19.5002 13.7697 19.5059 13.5617 19.721L7.57012 25.9112C7.36192 26.1262 7.36749 26.4693 7.58255 26.6775Z" fill="#0066CC"/>
<path d="M8.94438 22.0048C9.16017 22.089 9.38542 22.1308 9.61226 22.1308C9.92777 22.1308 10.2467 22.0499 10.5482 21.8897C11.0394 21.6287 11.4273 21.1838 11.6404 20.637C12.0918 19.4792 11.6169 18.2088 10.5816 17.8051C9.54657 17.4017 8.33692 18.0153 7.88562 19.173C7.67244 19.7199 7.65683 20.3099 7.84175 20.8346C8.03687 21.3881 8.42848 21.8037 8.94438 22.0048ZM8.89553 19.5669C9.08617 19.0781 9.50524 18.7639 9.91231 18.7639C10.0057 18.7639 10.0986 18.7804 10.1879 18.8152C10.6662 19.0017 10.8647 19.6423 10.6305 20.2433C10.5115 20.5486 10.3015 20.7932 10.0394 20.9326C9.80427 21.0576 9.55532 21.0798 9.33801 20.9949C9.12086 20.9103 8.95248 20.7255 8.86395 20.4743C8.76545 20.1943 8.77658 19.872 8.89553 19.5669Z" fill="#0066CC"/>
<path d="M12.8038 24.5012C12.2878 24.3 11.7182 24.3409 11.2 24.6164C10.7088 24.8774 10.321 25.3223 10.1078 25.8691C9.65635 27.0269 10.1313 28.2973 11.1665 28.7009C11.3823 28.7851 11.6057 28.825 11.8282 28.825C12.673 28.825 13.5053 28.2494 13.8625 27.333C14.0757 26.7862 14.0913 26.1962 13.9064 25.6715C13.7114 25.118 13.3198 24.7024 12.8038 24.5012ZM12.8527 26.9392C12.6183 27.5402 12.0386 27.8773 11.5603 27.6909C11.0819 27.5044 10.8834 26.8638 11.1176 26.2628C11.2366 25.9575 11.4466 25.7128 11.7087 25.5734C11.8499 25.4984 11.9962 25.4605 12.1375 25.4605C12.2315 25.4605 12.3233 25.4773 12.41 25.5111C12.6273 25.5958 12.7956 25.7806 12.8841 26.0318C12.9828 26.3119 12.9716 26.6341 12.8527 26.9392Z" fill="#0066CC"/>
<path d="M27.5503 19.2111L26.1798 27.7164C26.1322 28.0119 26.3331 28.29 26.6286 28.3377C26.6578 28.3424 26.6869 28.3447 26.7155 28.3447C26.9769 28.3447 27.207 28.1552 27.25 27.8889L28.6205 19.3836C28.6681 19.0881 28.4671 18.81 28.1716 18.7623C27.8757 18.7139 27.5978 18.9157 27.5503 19.2111Z" fill="#0066CC"/>
<path d="M26.499 21.0618C26.3609 20.4913 26.036 19.9986 25.5841 19.6742C25.1074 19.3321 24.5485 19.2153 24.0102 19.3457C22.9304 19.6071 22.2897 20.8025 22.5821 22.0104C22.7202 22.5808 23.0451 23.0736 23.497 23.3979C23.8466 23.6489 24.2402 23.7785 24.6375 23.7785C24.7822 23.7785 24.9274 23.7613 25.071 23.7265C25.6092 23.5961 26.0529 23.2367 26.3203 22.7142C26.5736 22.2191 26.6372 21.6322 26.499 21.0618ZM25.3553 22.2204C25.2341 22.4574 25.0425 22.6181 24.8159 22.673C24.5894 22.7279 24.3453 22.6726 24.1292 22.5173C23.888 22.3442 23.7127 22.0736 23.6356 21.7553C23.4839 21.1283 23.7663 20.52 24.2653 20.3992C24.3224 20.3854 24.3807 20.3785 24.4392 20.3785C24.6131 20.3785 24.7902 20.4387 24.952 20.5548C25.1932 20.7279 25.3684 20.9985 25.4455 21.3169C25.5225 21.6353 25.4905 21.9561 25.3553 22.2204Z" fill="#0066CC"/>
<path d="M28.2365 26.2294C28.4905 27.2781 29.3655 27.9967 30.2986 27.9966C30.4402 27.9966 30.5832 27.9801 30.7254 27.9456C31.8053 27.6841 32.4459 26.4886 32.1534 25.2809C31.8609 24.0732 30.7445 23.3031 29.6646 23.5647C29.1263 23.6951 28.6826 24.0545 28.4152 24.577C28.1619 25.0721 28.0983 25.659 28.2365 26.2294ZM29.3802 25.0708C29.5015 24.8338 29.693 24.6731 29.9196 24.6182C29.9783 24.604 30.0373 24.5972 30.0962 24.5972C30.5378 24.5972 30.9659 24.9828 31.0999 25.536C31.2517 26.1629 30.9692 26.7712 30.4703 26.8921C29.9715 27.0123 29.4418 26.6013 29.29 25.9743C29.213 25.6559 29.245 25.3351 29.3802 25.0708Z" fill="#0066CC"/>
<path d="M36.9434 32.0034L31.8693 11.0503C31.7324 10.4851 31.3584 10.0067 30.843 9.73761L29.787 9.18615C29.5215 9.04769 29.1943 9.15038 29.0556 9.41574C28.9171 9.6811 29.0199 10.0085 29.2852 10.1471L30.3413 10.6985C30.5796 10.823 30.7525 11.0441 30.8158 11.3054L35.8899 32.2585C36.0109 32.7581 35.7028 33.263 35.2032 33.384L24.8565 35.8896C24.3565 36.0105 23.852 35.7025 23.731 35.2029L18.6586 14.2566C18.5946 13.9926 18.6488 13.7146 18.8072 13.4938L22.9323 7.74279C23.3431 8.52449 23.6357 9.41401 23.706 10.4074L23.5347 10.4489C23.2437 10.5193 23.0649 10.8122 23.1355 11.1032C23.1955 11.3513 23.4173 11.5177 23.6618 11.5177C23.704 11.5177 23.7469 11.5128 23.7898 11.5023L24.9948 11.2105C25.2857 11.1401 25.4645 10.8472 25.394 10.5562C25.3261 10.2761 25.0525 10.1006 24.772 10.1509C24.6812 9.20169 24.4104 8.27459 23.9682 7.38832C24.022 7.40473 24.0748 7.42619 24.1261 7.453L27.3545 9.13875C27.6198 9.27735 27.9472 9.17437 28.0858 8.90916C28.2243 8.6438 28.1216 8.31636 27.8562 8.17783L24.6278 6.49222C24.2166 6.27745 23.7575 6.21971 23.3254 6.30065C22.9536 5.75995 22.5139 5.23899 22.0081 4.74288C21.0168 3.77033 20.0334 3.144 19.5552 2.86686V0.541994C19.5552 0.242597 19.3126 0 19.0132 0C18.7138 0 18.4712 0.242597 18.4712 0.541994V2.90747C16.4473 4.395 15.0007 6.81851 14.2798 9.93866C14.1799 10.3712 14.1003 10.7888 14.0365 11.1842L10.0086 9.6139C9.61574 9.46069 9.18698 9.46972 8.80101 9.63919C8.41504 9.80865 8.11817 10.1182 7.96511 10.5109L0.108288 30.6633C-0.207803 31.474 0.194573 32.3907 1.00525 32.7068L4.74169 34.1634C4.80644 34.1887 4.87292 34.2006 4.93847 34.2006C5.15534 34.2006 5.36007 34.0696 5.44354 33.8554C5.5523 33.5765 5.41434 33.2623 5.13547 33.1536L1.39903 31.6969C1.14516 31.5979 1.0192 31.3109 1.11813 31.0571L8.97495 10.9047C9.02294 10.7818 9.11587 10.6848 9.2367 10.6318C9.3576 10.5787 9.49187 10.576 9.61472 10.6239L13.8895 12.2905C13.8347 12.8149 13.8083 13.2669 13.7964 13.6167C13.5647 13.5989 13.339 13.7326 13.2503 13.9603C13.1416 14.2391 13.2795 14.5534 13.5584 14.6621L14.1262 14.8835C14.1273 14.8839 14.1284 14.8842 14.1294 14.8847L14.7136 15.1125C14.7783 15.1378 14.8448 15.1497 14.9104 15.1497C15.1272 15.1497 15.332 15.0187 15.4154 14.8045C15.5242 14.5256 15.3863 14.2113 15.1074 14.1026L14.873 14.0113C14.8765 13.7215 14.8917 13.267 14.9423 12.701L17.5729 13.7265C17.5325 13.9849 17.5419 14.2516 17.6049 14.512L18.9067 19.8878L12.7738 35.6015C12.6749 35.8553 12.3876 35.9811 12.134 35.8824L7.15443 33.941C6.87541 33.8321 6.56127 33.9701 6.45258 34.2491C6.34382 34.5279 6.48171 34.8422 6.76065 34.9509L11.7403 36.8924C11.928 36.9656 12.1213 37.0001 12.3116 37.0001C12.9431 37.0001 13.5409 36.6183 13.7836 35.9954L19.3522 21.7276L22.6773 35.4584C22.9005 36.3802 23.7278 37.0004 24.6369 37.0003C24.7935 37.0003 24.9526 36.9819 25.1114 36.9434L35.4581 34.4378C36.5388 34.1759 37.2051 33.084 36.9434 32.0034ZM19.0491 3.82756C19.6706 4.19402 21.1992 5.19751 22.3402 6.78729C22.2361 6.88123 22.1406 6.98681 22.0563 7.10432L18.0168 12.7361L15.0748 11.5891C15.4313 9.19179 16.4057 5.80917 19.0491 3.82756Z" fill="#0066CC"/>
</svg>
