<svg width="16" height="18" viewBox="0 0 16 18" fill="none" xmlns="http://www.w3.org/2000/svg">
<path d="M12.4512 1.92013C11.2595 0.681891 9.67877 0 7.99978 0C6.32079 0 4.74009 0.681891 3.54882 1.92013C1.11021 4.45419 1.11021 8.57763 3.54773 11.1109L7.5309 15.2672C7.65342 15.3949 7.8227 15.4672 7.99978 15.4672C8.17686 15.4672 8.34614 15.3949 8.46866 15.2672L12.4512 11.1117C14.8898 8.57742 14.8898 4.45423 12.4512 1.92013ZM11.5141 10.212L7.99978 13.8792L4.48465 10.2112C2.52402 8.17351 2.52402 4.85817 4.48465 2.82069C5.42912 1.83941 6.67734 1.29885 7.99978 1.29885C9.32222 1.29885 10.5707 1.83937 11.5149 2.82069C13.4758 4.85838 13.4758 8.17348 11.5141 10.212Z" fill="black"/>
<path d="M7.99972 3.25793C6.5554 3.25793 5.38037 4.43296 5.38037 5.87729C5.38037 7.32161 6.5554 8.49664 7.99972 8.49664C9.44426 8.49664 10.6191 7.32161 10.6191 5.87729C10.6191 4.43296 9.44405 3.25793 7.99972 3.25793ZM7.99972 7.19779C7.2715 7.19779 6.67922 6.60551 6.67922 5.87729C6.67922 5.14906 7.2715 4.55678 7.99972 4.55678C8.72795 4.55678 9.32023 5.14906 9.32023 5.87729C9.32023 6.60551 8.72795 7.19779 7.99972 7.19779Z" fill="black"/>
<path d="M15.8106 17.278L15.1612 11.4981C15.1244 11.1695 14.8464 10.9212 14.5159 10.9212H11.1172V12.2201H13.9355L14.439 16.7011H1.5611L2.06461 12.2201H4.88249V10.9212H1.48383C1.15325 10.9212 0.875521 11.1695 0.838501 11.4981L0.189095 17.278C0.168528 17.4618 0.227204 17.6454 0.350357 17.7833C0.473755 17.9212 0.649747 18 0.834599 18H15.1653C15.3502 18 15.5262 17.9212 15.6494 17.7833C15.7726 17.6454 15.8312 17.4618 15.8106 17.278Z" fill="black"/>
</svg>
