<svg width="17" height="17" viewBox="0 0 17 17" fill="none" xmlns="http://www.w3.org/2000/svg">
<path d="M3.88417 16.2263C3.69904 16.2263 3.51519 16.1685 3.35829 16.0551C3.06602 15.8433 2.92949 15.4792 3.00903 15.1278L4.09612 10.3392L0.4094 7.10604C0.138401 6.86946 0.0348742 6.4948 0.146136 6.15199C0.257398 5.80983 0.560113 5.56758 0.918523 5.53445L5.79651 5.09159L7.72509 0.57833C7.8673 0.246736 8.19115 0.0325928 8.55098 0.0325928C8.91081 0.0325928 9.23467 0.246736 9.37687 0.577557L11.3055 5.09159L16.1827 5.53445C16.5419 5.56681 16.8446 5.80983 16.9558 6.15199C17.0671 6.49416 16.9642 6.86946 16.6932 7.10604L13.0065 10.3386L14.0936 15.1271C14.1733 15.4792 14.0366 15.8433 13.7444 16.0544C13.4529 16.2656 13.0642 16.2819 12.7573 16.0974L8.55098 13.5837L4.34469 16.0988C4.20249 16.1832 4.04404 16.2263 3.88417 16.2263ZM8.55098 12.5009C8.71085 12.5009 8.86917 12.5438 9.0115 12.6283L12.9812 15.0025L11.9552 10.4828C11.882 10.1612 11.9912 9.82531 12.2398 9.60769L15.7209 6.55475L11.1153 6.13652C10.7837 6.10623 10.4985 5.89776 10.3689 5.5922L8.55098 1.33305L6.73083 5.59285C6.60267 5.89634 6.31749 6.10481 5.98667 6.13511L1.38046 6.55334L4.86142 9.60627C5.11076 9.82454 5.21983 10.1597 5.14596 10.4822L4.12075 15.0018L8.09046 12.6283C8.23267 12.5438 8.39112 12.5009 8.55098 12.5009ZM5.75925 5.17887C5.75925 5.17887 5.75925 5.17965 5.75848 5.18029L5.75925 5.17887ZM11.3413 5.17681L11.3421 5.17823C11.3421 5.17745 11.3421 5.17745 11.3413 5.17681Z" fill="#AEAEAE"/>
</svg>
