<svg width="32" height="30" viewBox="0 0 32 30" fill="none" xmlns="http://www.w3.org/2000/svg">
<path d="M29.75 0.9375H2.25C1.38875 0.9375 0.6875 1.63813 0.6875 2.5V18.75C0.6875 18.9225 0.8275 19.0625 1 19.0625H31C31.1725 19.0625 31.3125 18.9225 31.3125 18.75V2.5C31.3125 1.63813 30.6112 0.9375 29.75 0.9375ZM30.6875 18.4375H1.3125V2.5C1.3125 1.98312 1.73312 1.5625 2.25 1.5625H29.75C30.2669 1.5625 30.6875 1.98312 30.6875 2.5V18.4375Z" fill="#3D3F47"/>
<path d="M31 19.6875C30.8275 19.6875 30.6875 19.8275 30.6875 20V21.25C30.6875 21.7669 30.2669 22.1875 29.75 22.1875H2.25C1.73312 22.1875 1.3125 21.7669 1.3125 21.25V20C1.3125 19.8275 1.1725 19.6875 1 19.6875C0.8275 19.6875 0.6875 19.8275 0.6875 20V21.25C0.6875 22.1119 1.38875 22.8125 2.25 22.8125H29.75C30.6112 22.8125 31.3125 22.1119 31.3125 21.25V20C31.3125 19.8275 31.1725 19.6875 31 19.6875Z" fill="#3D3F47"/>
<path d="M29.125 2.8125H2.875C2.7025 2.8125 2.5625 2.9525 2.5625 3.125V16.875C2.5625 17.0475 2.7025 17.1875 2.875 17.1875H29.125C29.2975 17.1875 29.4375 17.0475 29.4375 16.875V3.125C29.4375 2.9525 29.2975 2.8125 29.125 2.8125ZM28.8125 16.5625H3.1875V3.4375H28.8125V16.5625Z" fill="#3D3F47"/>
<path d="M10.375 27.8125C11.2562 27.8125 12.0363 27.2494 12.315 26.4119L12.8062 24.4362C12.84 24.2669 12.73 24.1025 12.5612 24.0687C12.3887 24.0319 12.2269 24.1444 12.1937 24.3144L11.7225 26.2137C11.5281 26.7962 10.9869 27.1875 10.375 27.1875C9.95312 27.1875 9.56062 27.3519 9.27562 27.6444C8.97687 27.9356 8.8125 28.3281 8.8125 28.75C8.8125 28.9225 8.9525 29.0625 9.125 29.0625H22.875C23.0475 29.0625 23.1875 28.9225 23.1875 28.75C23.1875 28.3281 23.0231 27.9356 22.7306 27.6506C22.4394 27.3519 22.0469 27.1875 21.625 27.1875C21.0131 27.1875 20.4719 26.7962 20.2775 26.2125L19.8069 24.3137C19.7731 24.1444 19.6094 24.0325 19.4394 24.0681C19.27 24.1019 19.1606 24.2662 19.1944 24.4356L19.6856 26.4106C19.9637 27.2494 20.7437 27.8125 21.625 27.8125C21.8769 27.8125 22.11 27.91 22.2881 28.0925C22.3888 28.19 22.4638 28.3081 22.5094 28.4375H9.49062C9.53687 28.3075 9.61312 28.1881 9.7175 28.0862C9.89 27.91 10.1231 27.8125 10.375 27.8125Z" fill="#3D3F47"/>
<path d="M18.5 27.1875C18.6725 27.1875 18.8125 27.0475 18.8125 26.875C18.8125 26.7025 18.6725 26.5625 18.5 26.5625H13.5C13.3275 26.5625 13.1875 26.7025 13.1875 26.875C13.1875 27.0475 13.3275 27.1875 13.5 27.1875H18.5Z" fill="#3D3F47"/>
<path d="M16 21.25C16.3452 21.25 16.625 20.9702 16.625 20.625C16.625 20.2798 16.3452 20 16 20C15.6548 20 15.375 20.2798 15.375 20.625C15.375 20.9702 15.6548 21.25 16 21.25Z" fill="#3D3F47"/>
</svg>
