<svg width="30" height="32" viewBox="0 0 30 32" fill="none" xmlns="http://www.w3.org/2000/svg">
<path d="M8.4375 2.25V29.75C8.4375 30.6119 9.13875 31.3125 10 31.3125H27.5C28.3612 31.3125 29.0625 30.6119 29.0625 29.75V2.25C29.0625 1.38813 28.3612 0.6875 27.5 0.6875H10C9.13875 0.6875 8.4375 1.38813 8.4375 2.25ZM28.4375 2.25V29.75C28.4375 30.2669 28.0169 30.6875 27.5 30.6875H10C9.48312 30.6875 9.0625 30.2669 9.0625 29.75V2.25C9.0625 1.73312 9.48312 1.3125 10 1.3125H27.5C28.0169 1.3125 28.4375 1.73312 28.4375 2.25Z" fill="#3D3F47"/>
<path d="M7.5 0.6875H2.5C1.63875 0.6875 0.9375 1.38813 0.9375 2.25V3.5C0.9375 3.6725 1.0775 3.8125 1.25 3.8125C1.4225 3.8125 1.5625 3.6725 1.5625 3.5V2.25C1.5625 1.73312 1.98312 1.3125 2.5 1.3125H7.5C7.6725 1.3125 7.8125 1.1725 7.8125 1C7.8125 0.8275 7.6725 0.6875 7.5 0.6875Z" fill="#3D3F47"/>
<path d="M0.9375 29.75C0.9375 30.6119 1.63875 31.3125 2.5 31.3125H7.5C7.6725 31.3125 7.8125 31.1725 7.8125 31C7.8125 30.8275 7.6725 30.6875 7.5 30.6875H2.5C1.98312 30.6875 1.5625 30.2669 1.5625 29.75V9.75C1.5625 9.5775 1.4225 9.4375 1.25 9.4375C1.0775 9.4375 0.9375 9.5775 0.9375 9.75V29.75Z" fill="#3D3F47"/>
<path d="M18.7513 2.55875C18.9238 2.55875 19.0638 2.41884 19.0638 2.24625C19.0638 2.07366 18.9238 1.93375 18.7513 1.93375C18.5787 1.93375 18.4388 2.07366 18.4388 2.24625C18.4388 2.41884 18.5787 2.55875 18.7513 2.55875Z" fill="#3D3F47"/>
<path d="M10.625 26.9375H26.875C27.0475 26.9375 27.1875 26.7975 27.1875 26.625V3.5C27.1875 3.3275 27.0475 3.1875 26.875 3.1875H10.625C10.4525 3.1875 10.3125 3.3275 10.3125 3.5V26.625C10.3125 26.7975 10.4525 26.9375 10.625 26.9375ZM10.9375 3.8125H26.5625V26.3125H10.9375V3.8125Z" fill="#3D3F47"/>
<path d="M18.7694 27.5625C18.08 27.5625 17.5194 28.1231 17.5194 28.8125C17.5194 29.5019 18.08 30.0625 18.7694 30.0625C19.4588 30.0625 20.0194 29.5019 20.0194 28.8125C20.0194 28.1231 19.4588 27.5625 18.7694 27.5625ZM18.7694 29.4375C18.425 29.4375 18.1444 29.1575 18.1444 28.8125C18.1444 28.4675 18.425 28.1875 18.7694 28.1875C19.1138 28.1875 19.3944 28.4675 19.3944 28.8125C19.3944 29.1575 19.1144 29.4375 18.7694 29.4375Z" fill="#3D3F47"/>
<path d="M3.75 4.125C4.09518 4.125 4.375 3.84518 4.375 3.5C4.375 3.15482 4.09518 2.875 3.75 2.875C3.40482 2.875 3.125 3.15482 3.125 3.5C3.125 3.84518 3.40482 4.125 3.75 4.125Z" fill="#3D3F47"/>
<path d="M0.9375 8.5C0.9375 8.6725 1.0775 8.8125 1.25 8.8125C1.4225 8.8125 1.5625 8.6725 1.5625 8.5V6C1.5625 5.8275 1.4225 5.6875 1.25 5.6875C1.0775 5.6875 0.9375 5.8275 0.9375 6V8.5Z" fill="#3D3F47"/>
<path d="M1.25 5.0625C1.42259 5.0625 1.5625 4.92259 1.5625 4.75C1.5625 4.57741 1.42259 4.4375 1.25 4.4375C1.07741 4.4375 0.9375 4.57741 0.9375 4.75C0.9375 4.92259 1.07741 5.0625 1.25 5.0625Z" fill="#3D3F47"/>
</svg>
