<svg width="40" height="40" viewBox="0 0 40 40" fill="none" xmlns="http://www.w3.org/2000/svg">
<path d="M32.1875 6.25C32.1875 5.38813 31.4869 4.6875 30.625 4.6875H27.5H21.25H18.125C17.2637 4.6875 16.5625 5.38813 16.5625 6.25V33.75C16.5625 34.6119 17.2637 35.3125 18.125 35.3125H30.625C31.4869 35.3125 32.1875 34.6119 32.1875 33.75V6.25ZM27.0669 5.3125L26.8637 5.92188C26.7362 6.305 26.3787 6.5625 25.9744 6.5625H22.7763C22.3725 6.5625 22.0144 6.305 21.8869 5.92188L21.6831 5.3125H27.0669ZM31.5625 33.75C31.5625 34.2669 31.1419 34.6875 30.625 34.6875H18.125C17.6081 34.6875 17.1875 34.2669 17.1875 33.75V6.25C17.1875 5.73312 17.6081 5.3125 18.125 5.3125H21.0244L21.2931 6.11938C21.5069 6.75813 22.1025 7.1875 22.7756 7.1875H25.9737C26.6469 7.1875 27.2425 6.75813 27.4563 6.11938L27.725 5.3125H30.625C31.1419 5.3125 31.5625 5.73312 31.5625 6.25V33.75Z" fill="#3D3F47"/>
<path d="M15.9375 5C15.9375 4.8275 15.7975 4.6875 15.625 4.6875H9.375C8.51375 4.6875 7.8125 5.38813 7.8125 6.25V33.75C7.8125 34.6119 8.51375 35.3125 9.375 35.3125H15.625C15.7975 35.3125 15.9375 35.1725 15.9375 35C15.9375 34.8275 15.7975 34.6875 15.625 34.6875H9.375C8.85812 34.6875 8.4375 34.2669 8.4375 33.75V6.25C8.4375 5.73312 8.85812 5.3125 9.375 5.3125H15.625C15.7975 5.3125 15.9375 5.1725 15.9375 5Z" fill="#3D3F47"/>
<path d="M27.5 32.8125H21.25C21.0775 32.8125 20.9375 32.9525 20.9375 33.125C20.9375 33.2975 21.0775 33.4375 21.25 33.4375H27.5C27.6725 33.4375 27.8125 33.2975 27.8125 33.125C27.8125 32.9525 27.6725 32.8125 27.5 32.8125Z" fill="#3D3F47"/>
<path d="M13.7525 8.43625C13.9251 8.43625 14.065 8.29634 14.065 8.12375C14.065 7.95116 13.9251 7.81125 13.7525 7.81125C13.5799 7.81125 13.44 7.95116 13.44 8.12375C13.44 8.29634 13.5799 8.43625 13.7525 8.43625Z" fill="#3D3F47"/>
<path d="M11.25 6.5625C10.3887 6.5625 9.6875 7.26313 9.6875 8.125V10.625C9.6875 11.4869 10.3887 12.1875 11.25 12.1875H13.75C14.6112 12.1875 15.3125 11.4869 15.3125 10.625V8.125C15.3125 7.26313 14.6112 6.5625 13.75 6.5625H11.25ZM14.6875 8.125V10.625C14.6875 11.1419 14.2669 11.5625 13.75 11.5625H11.25C10.7331 11.5625 10.3125 11.1419 10.3125 10.625V8.125C10.3125 7.60812 10.7331 7.1875 11.25 7.1875H13.75C14.2669 7.1875 14.6875 7.60812 14.6875 8.125Z" fill="#3D3F47"/>
</svg>
