<svg width="146" height="156" viewBox="0 0 146 156" fill="none" xmlns="http://www.w3.org/2000/svg">
<path d="M72.6129 -12C32.573 -12 0 20.573 0 60.6078C0 118.251 64.8217 176.158 67.5826 178.6C69.0263 179.866 70.8196 180.5 72.6129 180.5C74.4771 180.5 76.3413 179.816 77.7952 178.453C80.5459 175.88 145.226 114.786 145.226 60.6129C145.226 20.578 112.643 -12 72.6129 -12ZM72.6129 95.2324C53.4896 95.2324 37.9934 79.7261 37.9934 60.6179C37.9934 41.5098 53.4896 26.0035 72.6129 26.0035C91.7261 26.0035 107.222 41.5048 107.222 60.6179C107.222 79.7311 91.7261 95.2324 72.6129 95.2324Z" fill="#E3E6F0"/>
</svg>
