<svg width="56" height="55" viewBox="0 0 56 55" fill="none" xmlns="http://www.w3.org/2000/svg">
<path fill-rule="evenodd" clip-rule="evenodd" d="M53.3798 54.9961H2.55739C1.40423 54.9961 0.469513 54.0613 0.469513 52.9081V2.08213C0.469513 0.928894 1.40423 -0.00536346 2.55739 -0.00536346H53.3798C54.533 -0.00536346 55.4677 0.928894 55.4677 2.08213V52.9081C55.4677 54.0613 54.533 54.9961 53.3798 54.9961Z" fill="#929292"/>
<path d="M43.5956 17.2939H39.2688C39.0835 17.2939 38.9336 17.4413 38.9336 17.6229V37.3657C38.9336 37.5457 39.0835 37.6931 39.2688 37.6931H43.5956C43.7793 37.6931 43.9314 37.5457 43.9314 37.3657V17.6229C43.9314 17.4413 43.7793 17.2939 43.5956 17.2939Z" fill="white"/>
<path d="M28.822 17.2932H12.3405C12.1552 17.2932 12.0063 17.4405 12.0063 17.6221V37.365C12.0063 37.545 12.1552 37.6924 12.3405 37.6924H16.6684C16.8526 37.6924 17.0052 37.545 17.0052 37.365V21.8698C17.0052 21.6908 17.1542 21.5424 17.3394 21.5424H26.662C29.2836 21.5424 30.0278 23.5504 30.0278 24.8458V37.365C30.0278 37.545 30.1783 37.6924 30.3636 37.6924H34.6888C34.873 37.6924 35.0241 37.545 35.0241 37.365V23.3594C35.0241 22.204 34.8851 20.5429 33.3946 19.0807C31.8351 17.5542 30.4125 17.2932 28.822 17.2932Z" fill="white"/>
<path d="M25.7904 25.1575H21.2468C21.0615 25.1575 20.9094 25.3049 20.9094 25.4854V37.3672C20.9094 37.5467 21.0615 37.6941 21.2468 37.6941H25.7904C25.9741 37.6941 26.1247 37.5467 26.1247 37.3672V25.4854C26.1247 25.3049 25.9741 25.1575 25.7904 25.1575Z" fill="white"/>
</svg>
