<svg width="40" height="47" viewBox="0 0 40 47" fill="none" xmlns="http://www.w3.org/2000/svg">
<path d="M38.7617 36.6393C38.0118 38.2405 37.262 39.7475 36.2309 41.1603C34.9186 43.0441 33.7938 44.3627 32.9502 45.1162C31.6379 46.3407 30.2319 46.9058 28.8258 47C27.7948 47 26.4825 46.7174 24.9827 46.0581C23.483 45.3988 22.077 45.1162 20.8584 45.1162C19.5461 45.1162 18.1401 45.3988 16.6404 46.0581C15.1406 46.7174 13.9221 47 12.9847 47C11.5787 47.0942 10.1727 46.4349 8.76665 45.1162C7.8293 44.3627 6.70449 42.9499 5.3922 41.0661C3.98619 38.994 2.76764 36.6393 1.83029 33.9078C0.799214 30.988 0.330536 28.1623 0.330536 25.4309C0.330536 22.3226 0.986682 19.5912 2.3927 17.3307C3.42378 15.5411 4.8298 14.0341 6.61076 12.998C8.39171 11.9619 10.2664 11.3968 12.3286 11.3968C13.4534 11.3968 14.9531 11.7735 16.7341 12.4329C18.6088 13.0922 19.7336 13.4689 20.296 13.4689C20.6709 13.4689 21.9832 13.0922 24.2329 12.2445C26.295 11.491 28.076 11.2084 29.5757 11.3026C33.5126 11.5852 36.4184 13.1864 38.3868 16.012C34.8249 18.1784 33.1376 21.1924 33.1376 24.9599C33.1376 27.9739 34.2625 30.4228 36.4184 32.4008C37.3557 33.3427 38.4805 34.002 39.6991 34.5671C39.3241 35.1323 39.0429 35.8858 38.7617 36.6393ZM29.7632 0.94188C29.7632 3.29659 28.9196 5.46292 27.2324 7.53507C25.1702 9.98396 22.7331 11.3026 20.0148 11.1142C20.0148 10.8317 19.9211 10.5491 19.9211 10.2665C19.9211 8.00601 20.8584 5.55711 22.6394 3.57915C23.483 2.54308 24.6078 1.78958 25.9201 1.13026C27.2324 0.470938 28.5446 0.0941849 29.6695 0.0941849C29.7632 0.282562 29.7632 0.659315 29.7632 0.94188Z" fill="#191919"/>
</svg>
