<svg width="124" height="21" viewBox="0 0 124 21" fill="none" xmlns="http://www.w3.org/2000/svg">
<path d="M6.39694 20.6944H0.474487V0.386291H10.7173L22.4684 15.5476V0.386291H28.3909V20.6944H18.3556L6.39694 5.27418V20.6944ZM56.727 14.4144C56.727 17.2374 56.2319 18.2109 55.4124 19.1441C54.1563 20.5332 52.3282 20.9517 48.8058 20.9517H38.6937C35.1712 20.9517 33.3401 20.5332 32.0855 19.1441C31.266 18.2109 30.7709 17.2374 30.7709 14.4144V6.58568C30.7709 3.76425 31.266 2.79226 32.0855 1.85747C33.3416 0.466904 35.1712 0.0483398 38.6937 0.0483398H48.8058C52.3282 0.0483398 54.1563 0.466904 55.4124 1.85747C56.2319 2.79226 56.727 3.76425 56.727 6.58568V14.4144ZM48.5567 15.8065C49.9097 15.8065 50.3863 15.7259 50.7108 15.4282C51.0136 15.1507 51.1474 14.7926 51.1474 13.599V7.40111C51.1474 6.20743 51.0136 5.85242 50.7108 5.57338C50.3863 5.27419 49.9097 5.19512 48.5567 5.19512H38.9412C37.5882 5.19512 37.1116 5.27419 36.7887 5.57338C36.4843 5.85242 36.3505 6.20743 36.3505 7.40111V13.599C36.3505 14.7926 36.4843 15.1507 36.7887 15.4282C37.1116 15.7259 37.5882 15.8065 38.9412 15.8065H48.5567ZM65.3339 0.386291V20.6944H59.1455V0.386291H65.3339ZM75.7889 0.386291H83.9592L72.9323 9.88459L85.3691 20.6944H76.6269L65.3339 10.1032L75.7889 0.386291ZM86.5099 0.386291H92.6999V20.6944H86.5099V0.386291ZM116.296 20.6944L114.465 17.1567H102.489L100.68 20.6928H93.8423L104.812 0.386291H112.506L123.474 20.6944H116.296ZM104.64 12.7463H112.335L108.487 5.39355L104.64 12.7463Z" fill="#929292"/>
</svg>
