<svg width="127" height="27" viewBox="0 0 127 27" fill="none" xmlns="http://www.w3.org/2000/svg">
<path d="M53.2262 5.99902C50.938 5.99902 48.3356 7.06448 46.7456 9.19756L46.7467 9.19324L46.7456 9.19432L46.7467 6.33401H41.2892V26.2968H46.7456V14.9376C46.7456 12.8932 48.3238 10.7201 51.2456 10.7201C53.5037 10.7201 55.8403 12.2978 55.8403 14.9376V26.2968H61.2978V13.9219C61.2978 9.33048 58.0274 5.99902 53.2262 5.99902Z" fill="#929292"/>
<path d="M100.085 6.33472L95.1514 19.9328L90.2179 6.33472H83.9837L92.1607 26.291H98.141L106.318 6.33472H100.085Z" fill="#929292"/>
<path d="M24.9969 12.3487C25.9264 11.0952 27.4066 10.3593 29.1946 10.3593C31.1611 10.3593 32.6532 11.4874 33.4246 13.1526L23.8899 17.1259C23.6295 15.0869 24.1492 13.4919 24.9969 12.3487ZM35.4815 20.1592C33.1847 21.8665 31.8722 22.2739 29.7777 22.2739C27.8929 22.2739 26.4169 21.686 25.3766 20.6551L39.3285 14.8416C39.024 12.675 38.2054 10.7397 36.9456 9.26791C35.1125 7.12942 32.3994 5.99805 29.0956 5.99805C23.0949 5.99805 18.5701 10.4447 18.5701 16.3177C18.5701 22.343 23.1056 26.6362 29.697 26.6362C33.3902 26.6362 37.1662 24.8781 38.9326 22.8239L35.4815 20.1592Z" fill="#929292"/>
<path d="M18.05 21.2634H5.64619V0.36377H0.114502V26.2968H18.05V21.2634Z" fill="#929292"/>
<path d="M116.118 10.6956C113.07 10.6956 110.857 13.0156 110.857 16.3157C110.857 19.4667 113.201 21.9359 116.191 21.9359C119.239 21.9359 121.451 19.5521 121.451 16.3157C121.451 13.1648 119.108 10.6956 116.118 10.6956ZM116.118 26.6332C110.149 26.6332 105.473 22.1671 105.473 16.3157C105.473 10.5303 110.181 5.99829 116.191 5.99829C122.159 5.99829 126.835 10.4644 126.835 16.3157C126.835 22.1001 122.127 26.6332 116.118 26.6332Z" fill="#929292"/>
<path d="M74.1006 10.6956C71.0529 10.6956 68.8411 13.0156 68.8411 16.3157C68.8411 19.4667 71.1842 21.9359 74.1748 21.9359C77.2225 21.9359 79.4343 19.5521 79.4343 16.3157C79.4343 13.1648 77.0913 10.6956 74.1006 10.6956ZM74.1006 26.6332C68.1321 26.6332 63.4568 22.1671 63.4568 16.3157C63.4568 10.5303 68.1644 5.99829 74.1748 5.99829C80.1422 5.99829 84.8187 10.4644 84.8187 16.3157C84.8187 22.1001 80.1099 26.6332 74.1006 26.6332Z" fill="#929292"/>
</svg>
