<svg width="95" height="41" viewBox="0 0 95 41" fill="none" xmlns="http://www.w3.org/2000/svg">
<path d="M21.1016 41C32.4842 41 41.7288 31.8322 41.7288 20.5045C41.7288 9.17628 32.4842 0 21.1016 0C9.70147 0 0.474487 9.17628 0.474487 20.5045C0.474487 31.8322 9.70147 41 21.1016 41Z" fill="#929292"/>
<path d="M20.2717 11.5061V29.494H26.0212V27.8766H21.9288V11.5061H20.2717Z" fill="white"/>
<path d="M14.5148 16.414C15.8827 16.414 16.9853 15.3078 16.9853 13.9569C16.9853 12.6049 15.8827 11.4944 14.5148 11.4944C13.147 11.4944 12.0444 12.6049 12.0444 13.9569C12.0444 15.3089 13.147 16.414 14.5148 16.414Z" fill="white"/>
<path d="M21.9283 3.34615C21.7127 3.33554 21.3028 3.32227 21.107 3.32227C11.5859 3.32227 3.83728 11.0319 3.83728 20.4959C3.83728 25.0928 5.63315 29.4014 8.88599 32.6416C12.1522 35.8743 16.4863 37.6605 21.107 37.6605C25.7101 37.6605 30.0431 35.8743 33.3034 32.6416C36.5643 29.4014 38.3687 25.0928 38.3687 20.4959V19.732H37.6701H26.0372V21.3128H36.7238C36.7238 21.3473 36.7238 21.5151 36.7164 21.5586C36.1731 29.6493 29.3792 36.0574 21.107 36.0574C16.9196 36.0574 12.9933 34.4379 10.0382 31.4966C7.07358 28.5675 5.43995 24.6655 5.43995 20.4954C5.43995 16.3491 7.07358 12.4269 10.0382 9.4888C12.9933 6.55337 16.9196 4.93383 21.107 4.93383C21.2874 4.93383 21.7261 4.93383 21.9283 4.94445V3.34615Z" fill="white"/>
<path d="M57.2416 6.9018H51.0433V33.5904H70.0811V28.3952H57.2416V6.9018ZM83.7164 23.4199H88.7645V28.0863C87.8338 28.4388 86.0187 28.7902 84.2917 28.7902C78.713 28.7902 76.8547 25.972 76.8547 20.2482C76.8547 14.7898 78.6244 11.5714 84.2031 11.5714C87.3033 11.5714 89.0741 12.5407 90.5332 14.3906L94.387 10.8665C92.0398 7.52233 87.9213 6.50952 84.0707 6.50952C75.3908 6.50952 70.8315 11.2211 70.8315 20.2036C70.8315 29.1426 74.9489 33.9864 84.027 33.9864C88.1881 33.9864 92.2618 32.93 94.4745 31.3891V18.4424H83.7164V23.4199Z" fill="#929292"/>
</svg>
