<svg width="146" height="49" viewBox="0 0 146 49" fill="none" xmlns="http://www.w3.org/2000/svg">
<path d="M145.384 11.5015C147.366 22.8586 116.449 37.7308 76.3215 44.7188C36.2002 51.7069 2.06877 48.1617 0.0902218 36.7986C-1.88833 25.4415 29.0378 10.5723 69.159 3.58726C109.283 -3.40682 143.409 0.141342 145.384 11.5015Z" fill="#929292"/>
<path d="M107.62 28.3582L107.416 16.55H111.139V31.4343H105.786L102.07 19.2202H101.988L102.196 31.4343H98.4945V16.55H104.081L107.539 28.3582H107.62Z" fill="white"/>
<path d="M39.9348 17.9453L37.8751 31.5906H33.8127L36.6002 16.55H43.2905L46.0689 31.5906H42.0216L40.019 17.9453H39.9348Z" fill="white"/>
<path d="M57.4741 28.0485L59.3324 16.55H65.4665L65.7913 31.5906H62.0326L61.9334 18.0685H61.8552L59.3414 31.5906H55.5257L53.0089 18.0685H52.9277L52.8345 31.5906H49.0668L49.4006 16.55H55.5377L57.393 28.0485H57.4741Z" fill="white"/>
<path d="M27.4802 27.3479C27.6275 27.7117 27.5824 28.1808 27.5133 28.4634C27.387 28.9626 27.0472 29.4738 26.0489 29.4738C25.1047 29.4738 24.5334 28.9325 24.5334 28.1086V26.6533H20.4981L20.4951 27.8169C20.4951 31.1697 23.1352 32.183 25.9647 32.183C28.686 32.183 30.9261 31.2538 31.2809 28.7461C31.4644 27.4471 31.326 26.5961 31.2659 26.2744C30.6314 23.1262 24.9213 22.185 24.4973 20.426C24.4252 20.1253 24.4462 19.8035 24.4823 19.6321C24.5876 19.154 24.9153 18.6248 25.8565 18.6248C26.7345 18.6248 27.2547 19.1691 27.2547 19.99C27.2547 20.2666 27.2547 20.9191 27.2547 20.9191H31.0043V19.8637C31.0043 16.5861 28.0635 16.075 25.9346 16.075C23.2585 16.075 21.0725 16.959 20.6725 19.4066C20.5643 20.0832 20.5493 20.6845 20.7056 21.4393C21.3641 24.5093 26.7044 25.3994 27.4802 27.3479Z" fill="white"/>
<path d="M76.3876 27.3209C76.535 27.6817 76.4869 28.1388 76.4207 28.4215C76.2974 28.9206 75.9606 29.4228 74.9684 29.4228C74.0392 29.4228 73.4709 28.8815 73.4709 28.0757L73.4679 26.6323H69.4747L69.4687 27.781C69.4687 31.1006 72.0847 32.1019 74.8842 32.1019C77.5754 32.1019 79.7945 31.1848 80.1463 28.7011C80.3297 27.4111 80.2004 26.5722 80.1342 26.2565C79.5028 23.1383 73.8528 22.2062 73.4318 20.4622C73.3597 20.1615 73.3807 19.8457 73.4168 19.6834C73.5251 19.1992 73.8468 18.6851 74.7789 18.6851C75.6509 18.6851 76.1591 19.2143 76.1591 20.0322C76.1591 20.3058 76.1591 20.9523 76.1591 20.9523H79.8817V19.9059C79.8817 16.6644 76.965 16.1562 74.8541 16.1562C72.208 16.1562 70.04 17.0283 69.6491 19.4608C69.5409 20.1284 69.5289 20.7177 69.6852 21.4695C70.3317 24.5095 75.6209 25.3935 76.3876 27.3209Z" fill="white"/>
<path d="M89.0197 29.3414C90.0631 29.3414 90.3878 28.6197 90.46 28.2499C90.4901 28.0875 90.4991 27.871 90.4961 27.6755V16.5439H94.2998V27.3327C94.3088 27.6094 94.2818 28.1777 94.2667 28.319C93.9991 31.1275 91.78 32.0386 89.0167 32.0386C86.2503 32.0386 84.0282 31.1275 83.7636 28.319C83.7516 28.1777 83.7245 27.6064 83.7305 27.3327V16.5439H87.5313V27.6725C87.5313 27.868 87.5373 28.0875 87.5673 28.2469C87.6515 28.6167 87.9673 29.3414 89.0197 29.3414Z" fill="white"/>
<path d="M120.397 29.1821C121.485 29.1821 121.867 28.4935 121.936 28.0936C121.963 27.9222 121.972 27.7117 121.969 27.5223V25.3393H120.427V23.1442H125.761V27.1825C125.758 27.4651 125.752 27.6726 125.707 28.1748C125.457 30.9111 123.082 31.8883 120.418 31.8883C117.748 31.8883 115.378 30.9111 115.123 28.1748C115.081 27.6726 115.075 27.4651 115.069 27.1825L115.072 20.8499C115.072 20.5823 115.105 20.1102 115.135 19.8577C115.468 17.0462 117.748 16.1411 120.418 16.1411C123.085 16.1411 125.421 17.0402 125.698 19.8577C125.746 20.3358 125.731 20.8499 125.731 20.8499V21.3521H121.939V20.5102C121.942 20.5132 121.933 20.1523 121.891 19.9388C121.828 19.6051 121.539 18.8413 120.391 18.8413C119.293 18.8413 118.975 19.563 118.893 19.9388C118.848 20.1373 118.83 20.4049 118.83 20.6485V27.5283C118.827 27.7177 118.839 27.9282 118.869 28.0996C118.929 28.4935 119.308 29.1821 120.397 29.1821Z" fill="white"/>
</svg>
