<svg width="46" height="54" viewBox="0 0 46 54" fill="none" xmlns="http://www.w3.org/2000/svg">
<path d="M38.3825 51.84C35.4557 54.6804 32.2265 54.2376 29.1485 52.8984C25.8761 51.5322 22.8845 51.4458 19.4285 52.8984C15.1247 54.756 12.8405 54.216 10.2485 51.84C-4.38546 36.774 -2.22546 13.824 14.4065 12.96C18.4403 13.176 21.2645 15.1902 23.6405 15.3576C27.1721 14.6394 30.5525 12.582 34.3325 12.852C38.8739 13.2192 42.2705 15.012 44.5385 18.2358C35.1965 23.8518 37.4105 36.1638 45.9911 39.6198C44.2739 44.1288 42.0707 48.5838 38.3771 51.8778L38.3825 51.84ZM23.3165 12.798C22.8791 6.10196 28.3061 0.593955 34.5485 0.0539551C35.4071 7.77596 27.5285 13.554 23.3165 12.798Z" fill="#929292"/>
</svg>
