<svg width="19" height="19" viewBox="0 0 19 19" fill="none" xmlns="http://www.w3.org/2000/svg">
<path d="M17.7924 3.633H1.20761C0.530553 3.633 0 4.16355 0 4.84065V14.1595C0 14.8366 0.530553 15.3671 1.20761 15.3671H17.7923C18.4696 15.3671 19 14.8366 19 14.1595V4.84065C19 4.16355 18.4694 3.633 17.7924 3.633ZM17.7924 14.1595H1.20761L1.19837 4.84143C1.19837 4.84143 1.20119 4.84061 1.20761 4.84061H17.7923V14.1595H17.7924Z" fill="black"/>
<path d="M3.48189 4.23676V4.92109C3.48189 6.09753 2.52484 7.05458 1.3484 7.05458H0.664062V8.2622H1.3484C3.19062 8.2622 4.6895 6.76353 4.6895 4.92109V4.23676H3.48189Z" fill="black"/>
<path d="M17.6513 7.05454C16.4749 7.05454 15.5177 6.09749 15.5177 4.92105V4.23676H14.3101V4.92109C14.3101 6.76331 15.8091 8.2622 17.6513 8.2622H18.3357V7.05458H17.6513V7.05454Z" fill="black"/>
<path d="M17.6516 10.7582C15.8091 10.7582 14.3103 12.2571 14.3103 14.0993V14.7836H15.5177V14.0993C15.5177 12.9228 16.475 11.9658 17.6514 11.9658H18.3357V10.7582H17.6516Z" fill="black"/>
<path d="M1.3484 10.7582H0.664062V11.9658H1.3484C2.52484 11.9658 3.48189 12.9228 3.48189 14.0993V14.7836H4.6895V14.0993C4.6895 12.2568 3.19062 10.7582 1.3484 10.7582Z" fill="black"/>
<path d="M9.49999 5.58521C7.33592 5.58521 5.5752 7.34593 5.5752 9.51C5.5752 11.6741 7.33592 13.4348 9.49999 13.4348C11.6641 13.4348 13.4248 11.6741 13.4248 9.51C13.4248 7.34593 11.6641 5.58521 9.49999 5.58521ZM9.49999 12.2272C8.00174 12.2272 6.78285 11.0083 6.78285 9.51004C6.78285 8.01179 8.00174 6.79289 9.49999 6.79289C10.9985 6.79289 12.2171 8.01201 12.2171 9.51004C12.2171 11.0083 10.9982 12.2272 9.49999 12.2272Z" fill="black"/>
</svg>
