<svg width="18" height="18" viewBox="0 0 18 18" fill="none" xmlns="http://www.w3.org/2000/svg">
<path fill-rule="evenodd" clip-rule="evenodd" d="M14.4228 5.32803C14.4773 5.31123 14.5506 5.34723 14.6217 5.44083L17.858 8.64003C17.9028 8.6781 17.9388 8.72565 17.9635 8.77935C17.9882 8.83304 18.0011 8.89157 18.0011 8.95082C18.0011 9.01008 17.9882 9.06861 17.9635 9.1223C17.9388 9.176 17.9028 9.22356 17.858 9.26163L14.6217 12.5088C14.5506 12.6048 14.4773 12.6264 14.4228 12.5976C14.3683 12.5688 14.3352 12.4848 14.3352 12.3576V5.53683C14.3352 5.41923 14.3683 5.34723 14.4228 5.32803Z" fill="black"/>
<path fill-rule="evenodd" clip-rule="evenodd" d="M8.8851 0H9.12185L9.34203 0.0936L12.6683 3.4344C12.8104 3.6264 12.763 3.7704 12.5239 3.7704H11.1437C11.0874 3.76976 11.0316 3.78048 10.9795 3.80194C10.9274 3.82339 10.88 3.85515 10.8401 3.89536C10.8002 3.93557 10.7686 3.98343 10.7472 4.03614C10.7257 4.08886 10.7149 4.14538 10.7152 4.2024V6.6816C10.7134 6.74194 10.6996 6.80129 10.6746 6.85607C10.6496 6.91084 10.6138 6.95991 10.5696 7.00029C10.5253 7.04067 10.4734 7.07153 10.4171 7.09101C10.3607 7.11048 10.301 7.11817 10.2417 7.1136H7.81263C7.75647 7.11392 7.7008 7.10298 7.64882 7.08141C7.59685 7.05984 7.54959 7.02807 7.50977 6.98792C7.46995 6.94778 7.43834 6.90004 7.41678 6.84748C7.39522 6.79491 7.38412 6.73853 7.38412 6.6816V4.2024C7.38412 4.14526 7.37294 4.08869 7.35123 4.03596C7.32952 3.98324 7.29771 3.9354 7.25763 3.89522C7.21756 3.85504 7.17002 3.82332 7.11777 3.8019C7.06552 3.78047 7.00959 3.76977 6.95323 3.7704H5.47592C5.23917 3.7704 5.18946 3.6264 5.33387 3.4344L8.66729 0.0936L8.8851 0Z" fill="black"/>
<path fill-rule="evenodd" clip-rule="evenodd" d="M3.66487 5.25605C3.72643 5.28485 3.76431 5.36885 3.76431 5.49605V12.456C3.76431 12.576 3.72643 12.648 3.66487 12.672C3.60332 12.696 3.52519 12.672 3.42813 12.6L0.142055 9.26165C0.0972669 9.22358 0.0612511 9.17602 0.0365401 9.12233C0.0118292 9.06863 -0.000976563 9.0101 -0.000976562 8.95085C-0.000976563 8.8916 0.0118292 8.83306 0.0365401 8.77937C0.0612511 8.72567 0.0972669 8.67812 0.142055 8.64005L3.42813 5.34725C3.52519 5.25125 3.60805 5.22725 3.66487 5.25605Z" fill="black"/>
<path fill-rule="evenodd" clip-rule="evenodd" d="M7.81259 10.7424H10.2369C10.2961 10.7375 10.3558 10.7449 10.4121 10.7641C10.4685 10.7833 10.5204 10.8139 10.5647 10.8541C10.609 10.8943 10.6447 10.9432 10.6698 10.9979C10.6948 11.0525 10.7087 11.1118 10.7104 11.172V13.7976C10.7052 13.8582 10.7123 13.9192 10.7314 13.9768C10.7505 14.0344 10.7811 14.0873 10.8214 14.1324C10.8616 14.1775 10.9106 14.2136 10.9652 14.2386C11.0198 14.2636 11.079 14.2769 11.1389 14.2776H12.4292C12.6659 14.2776 12.763 14.4192 12.5736 14.5632L9.33488 17.856C9.24616 17.9454 9.12616 17.9956 9.00106 17.9956C8.87597 17.9956 8.75596 17.9454 8.66725 17.856L5.43089 14.5608C5.23913 14.4168 5.33383 14.2752 5.57058 14.2752H6.95082C7.01096 14.2748 7.07036 14.2618 7.12528 14.2369C7.1802 14.2121 7.22944 14.176 7.26992 14.1309C7.3104 14.0858 7.34123 14.0327 7.36046 13.9749C7.3797 13.9172 7.38693 13.856 7.3817 13.7952V11.172C7.3817 11.115 7.39289 11.0586 7.41463 11.006C7.43637 10.9534 7.46822 10.9057 7.50833 10.8657C7.54843 10.8257 7.59599 10.7942 7.64823 10.7731C7.70047 10.7519 7.75634 10.7415 7.81259 10.7424Z" fill="black"/>
</svg>
