<svg width="20" height="20" viewBox="0 0 20 20" fill="none" xmlns="http://www.w3.org/2000/svg">
<g clip-path="url(#clip0_102_606)">
<path d="M15.7022 10.9626V14.1679L9.99691 17.4622L4.31312 14.1684V10.9626H2.96533V14.5568C2.96533 14.7972 3.09337 15.0196 3.30138 15.14L9.65863 18.824C9.76309 18.8844 9.87968 18.9148 9.99648 18.9148C10.1128 18.9148 10.2292 18.8849 10.3334 18.8244L16.7131 15.1404C16.9218 15.02 17.0501 14.7974 17.0501 14.5568V10.9626H15.7022Z" fill="black"/>
<path d="M16.0453 6.62366L9.68292 10.2084L6.47175 11.8954L1.93587 9.14094L4.01015 7.77378L3.26839 6.64834L0.303181 8.60274C0.110009 8.72988 -0.00436304 8.94734 0.000127508 9.17847C0.00461806 9.40959 0.127269 9.62237 0.325165 9.74209L3.22094 11.4931L6.0963 13.2453C6.20368 13.3109 6.3252 13.3437 6.44696 13.3437C6.55457 13.3437 6.66215 13.3179 6.76055 13.2664L10.3271 11.3923L16.7068 7.79807L16.0453 6.62366Z" fill="black"/>
<path d="M19.692 8.60407L16.7492 6.64975L16.0035 7.7725L18.0607 9.13876L13.5212 11.8955L10.3282 10.2185L3.97097 6.62433L3.30762 7.79761L9.68307 11.4019L13.2321 13.2664C13.3305 13.3181 13.4381 13.3437 13.5457 13.3437C13.6675 13.3437 13.789 13.3106 13.8968 13.2453L16.7699 11.4945L19.6677 9.74229C19.8654 9.6228 19.9881 9.4105 19.9928 9.1798C19.9977 8.94914 19.8841 8.73168 19.692 8.60407Z" fill="black"/>
<path d="M19.6685 4.68061L13.8953 1.17627C13.6938 1.05404 13.4436 1.04577 13.2353 1.15424L9.68608 2.99627C9.67823 3.00009 9.67058 3.00435 9.66316 3.0086L3.30591 6.62525L3.97242 7.79674L10.3182 4.18661L13.5197 2.52495L18.0621 5.28215L16.0031 6.6495L16.7489 7.77226L19.6916 5.81793C19.8837 5.69032 19.9972 5.47333 19.9924 5.24287C19.9879 5.01241 19.8658 4.80033 19.6685 4.68061Z" fill="black"/>
<path d="M10.3287 3.00815C10.3213 3.00409 10.3141 3.00006 10.3067 2.99624L6.75741 1.15421C6.54874 1.0455 6.29848 1.05402 6.09742 1.17624L0.324254 4.68058C0.126553 4.80054 0.00437106 5.01304 0.000114802 5.24421C-0.00414146 5.47537 0.110192 5.69236 0.303168 5.8195L3.26838 7.77383L4.01014 6.64838L1.93425 5.28032L6.47303 2.52496L9.67502 4.18682L16.0439 7.79741L16.7084 6.6248L10.3287 3.00815Z" fill="black"/>
<path d="M10.6703 10.8053H9.32251V18.2408H10.6703V10.8053Z" fill="black"/>
</g>
<defs>
<clipPath id="clip0_102_606">
<rect width="19.993" height="19.993" fill="white"/>
</clipPath>
</defs>
</svg>
