<svg width="238" height="156" viewBox="0 0 238 156" fill="none" xmlns="http://www.w3.org/2000/svg">
<path d="M114.375 10.3491V-5.99017H16.3393C7.33635 -5.99017 0 1.34618 0 10.3491V43.0278H117.823C115.552 33.0444 114.375 22.2932 114.375 10.3491Z" fill="#E3E6F0"/>
<path d="M260.759 75.7062C249.616 92.8789 232.623 107.486 208.277 121.473C204.535 123.613 200.32 124.724 196.072 124.724C191.824 124.724 187.608 123.613 183.915 121.505C159.57 107.486 142.577 92.8625 131.417 75.7062H0V157.403C0 166.422 7.33635 173.742 16.3393 173.742H245.09C254.109 173.742 261.429 166.422 261.429 157.403V75.7062H260.759ZM73.5269 124.724H40.8483C36.3386 124.724 32.6786 121.064 32.6786 116.555C32.6786 112.045 36.3386 108.385 40.8483 108.385H73.5269C78.0366 108.385 81.6966 112.045 81.6966 116.555C81.6966 121.064 78.0366 124.724 73.5269 124.724Z" fill="#E3E6F0"/>
<path d="M256.478 -29.8293L199.291 -54.3383C197.216 -55.2206 194.912 -55.2206 192.837 -54.3383L135.649 -29.8293C132.659 -28.5548 130.715 -25.5974 130.715 -22.3295V10.3491C130.715 55.2985 147.332 81.5721 192.003 107.307C193.261 108.025 194.667 108.385 196.072 108.385C197.477 108.385 198.882 108.025 200.14 107.307C244.812 81.6375 261.429 55.3639 261.429 10.3491V-22.3295C261.429 -25.5974 259.485 -28.5548 256.478 -29.8293ZM226.969 7.29362L194.291 48.1419C192.722 50.0699 190.369 51.1974 187.902 51.1974C187.788 51.1974 187.657 51.1974 187.559 51.1974C184.961 51.083 182.559 49.7432 181.105 47.57L164.766 23.0611C162.266 19.303 163.279 14.2378 167.037 11.7379C170.762 9.25435 175.844 10.2347 178.36 14.0091L188.507 29.221L214.192 -2.90211C217.019 -6.41506 222.166 -6.97059 225.679 -4.17657C229.208 -1.38255 229.764 3.76433 226.969 7.29362Z" fill="#E3E6F0"/>
</svg>
