<svg width="28" height="26" viewBox="0 0 28 26" fill="none" xmlns="http://www.w3.org/2000/svg">
<path d="M20.8043 13.2222C21.1062 13.2222 21.3511 12.9773 21.3511 12.6753C21.3511 12.3733 21.1062 12.1284 20.8043 12.1284H17.1272C16.8252 12.1284 16.5803 12.3733 16.5803 12.6753C16.5803 12.9773 16.8252 13.2222 17.1272 13.2222H20.8043Z" fill="white"/>
<path d="M27.6158 16.6659C27.0482 15.8368 25.9821 15.5018 25.0465 15.8449V2.73433C25.0465 1.22662 23.8199 0 22.3122 0H7.87488C6.36717 0 5.14054 1.22662 5.14054 2.73433V5.6686C5.14054 5.97058 5.38543 6.21547 5.68741 6.21547C5.98939 6.21547 6.23428 5.97058 6.23428 5.6686V2.73433C6.23428 1.82971 6.97025 1.09373 7.87488 1.09373H11.9217V5.66854C11.9217 5.87356 12.0364 6.06136 12.2187 6.15504C12.4012 6.24866 12.6206 6.23247 12.7872 6.11304L15.0935 4.45997L17.3999 6.11304C17.4945 6.1809 17.6063 6.21541 17.7185 6.21541C17.8039 6.21541 17.8896 6.19545 17.9683 6.15504C18.1507 6.06136 18.2653 5.87362 18.2653 5.66854V1.09373H22.3122C23.2168 1.09373 23.9528 1.82971 23.9528 2.73433V16.3041L20.0698 17.9445C20.0976 17.807 20.1123 17.6648 20.1123 17.5193C20.1123 16.3372 19.1505 15.3754 17.9684 15.3754H14.8165L13.0143 14.5771C12.1883 14.2111 11.3114 14.0256 10.408 14.0256C9.33769 14.0256 8.27376 14.292 7.32746 14.7871V14.0545C7.32746 13.7525 7.08258 13.5076 6.7806 13.5076H6.23428V10.5903C6.23428 10.2884 5.98939 10.0435 5.68741 10.0435C5.38543 10.0435 5.14054 10.2884 5.14054 10.5903V13.5076H0.546866C0.244887 13.5076 0 13.7525 0 14.0545V24.4996C0 24.8016 0.244887 25.0465 0.546866 25.0465H6.7806C7.08258 25.0465 7.32746 24.8016 7.32746 24.4996V23.9532H14.2326C17.0786 23.9532 19.9298 23.283 22.4779 22.0151L26.7819 19.8735C27.351 19.5902 27.7693 19.0749 27.9292 18.4596C28.0893 17.8442 27.975 17.1905 27.6158 16.6659ZM17.1716 4.60374L15.4121 3.34267C15.3169 3.27442 15.2052 3.24029 15.0935 3.24029C14.9818 3.24029 14.8702 3.27442 14.775 3.34267L13.0154 4.60374V1.09373H17.1716V4.60374ZM1.09373 23.9528V14.6013H6.23373V23.9528H1.09373ZM26.8707 18.1843C26.7903 18.4932 26.5804 18.7519 26.2946 18.8941L21.9907 21.0358C19.5931 22.2288 16.9104 22.8594 14.2326 22.8594H7.32746V16.0574C8.23357 15.4512 9.31675 15.1193 10.408 15.1193C11.1579 15.1193 11.8857 15.2733 12.5713 15.5769L14.4794 16.4222C14.5491 16.4531 14.6245 16.469 14.7009 16.469H17.9684C18.5475 16.469 19.0186 16.9401 19.0186 17.5192C19.0186 18.0983 18.5475 18.5694 17.9684 18.5694H13.3109C13.009 18.5694 12.7641 18.8143 12.7641 19.1163C12.7641 19.4182 13.009 19.6631 13.3109 19.6631H18.1043C18.5739 19.6631 19.0314 19.5704 19.464 19.3877L25.3741 16.8908C25.8551 16.6875 26.4183 16.8529 26.7133 17.2837C26.8936 17.5471 26.951 17.8754 26.8707 18.1843Z" fill="white"/>
<path d="M5.68726 8.67651C5.83108 8.67651 5.97218 8.618 6.07384 8.51622C6.17611 8.41396 6.23413 8.27347 6.23413 8.12964C6.23413 7.98521 6.17611 7.84472 6.07384 7.74245C5.97218 7.64073 5.83108 7.58276 5.68726 7.58276C5.54337 7.58276 5.40233 7.64073 5.30062 7.74245C5.1989 7.84472 5.14038 7.98521 5.14038 8.12964C5.14038 8.27347 5.19884 8.41456 5.30062 8.51622C5.40233 8.618 5.54337 8.67651 5.68726 8.67651Z" fill="white"/>
</svg>