<svg width="14" height="14" viewBox="0 0 14 14" fill="none" xmlns="http://www.w3.org/2000/svg">
<path d="M5.10416 10.2737V12.9792C5.10416 13.1682 5.22549 13.3356 5.40516 13.3951C5.45007 13.4097 5.49616 13.4167 5.54166 13.4167C5.67816 13.4167 5.80999 13.3525 5.89399 13.2382L7.47658 11.0845L5.10416 10.2737Z" fill="white"/>
<path d="M13.8158 0.0801585C13.6817 -0.0149249 13.5055 -0.0277582 13.3597 0.0486585L0.234652 6.90283C0.0794849 6.98391 -0.0120985 7.14958 0.00073485 7.32399C0.0141515 7.49899 0.130235 7.64833 0.295319 7.70491L3.94407 8.95208L11.7147 2.30791L5.70166 9.55233L11.8167 11.6424C11.8622 11.6576 11.9101 11.6657 11.9579 11.6657C12.0372 11.6657 12.116 11.6442 12.1854 11.6022C12.2962 11.5345 12.3715 11.4207 12.3907 11.293L13.9949 0.501325C14.0188 0.337992 13.95 0.175825 13.8158 0.0801585Z" fill="white"/>
</svg>
