<svg width="18" height="18" viewBox="0 0 18 18" fill="none" xmlns="http://www.w3.org/2000/svg">
<g clip-path="url(#clip0_20_0)">
<path d="M15.5754 17.4084L14.2073 4.38038C14.1786 4.10764 13.9487 3.90055 13.6745 3.90055H11.1032V3.31429C11.1032 1.48686 9.61629 0 7.78886 0C5.96129 0 4.47443 1.48686 4.47443 3.31429V3.90055H1.90308C1.62884 3.90055 1.39895 4.10764 1.37025 4.38038L0.0021762 17.4084C-0.0136166 17.5593 0.0354098 17.7099 0.136896 17.8228C0.238519 17.9356 0.383264 18 0.535012 18H15.0424C15.1943 18 15.3391 17.9356 15.4405 17.8228C15.5423 17.7099 15.5912 17.5593 15.5754 17.4084ZM5.54587 3.31429C5.54587 2.07765 6.55207 1.07144 7.78886 1.07144C9.0255 1.07144 10.0317 2.07765 10.0317 3.31429V3.90055H5.54587V3.31429ZM1.12992 16.9285L2.38552 4.97199H4.47443V6.15261C4.47443 6.44841 4.71434 6.68833 5.01015 6.68833C5.30595 6.68833 5.54587 6.44841 5.54587 6.15261V4.97199H10.0317V6.15261C10.0317 6.44841 10.2716 6.68833 10.5674 6.68833C10.8632 6.68833 11.1032 6.44841 11.1032 6.15261V4.97199H13.1921L14.4477 16.9285H1.12992Z" fill="#969AA5"/>
</g>
<defs>
<clipPath id="clip0_20_0">
<rect width="18" height="18" fill="white"/>
</clipPath>
</defs>
</svg>
