<svg width="22" height="8" viewBox="0 0 22 8" fill="none" xmlns="http://www.w3.org/2000/svg">
<path d="M9.51353 7.00266H7.73511L8.84746 0.124695H10.6258L9.51353 7.00266Z" fill="black"/>
<path d="M15.9605 0.292822C15.6097 0.153656 15.0534 0 14.3654 0C12.6092 0 11.3724 0.936526 11.3648 2.27548C11.3503 3.26335 12.2503 3.81204 12.9235 4.14143C13.6115 4.47801 13.8454 4.6977 13.8454 4.99772C13.8384 5.4585 13.2894 5.67089 12.7774 5.67089C12.0674 5.67089 11.6869 5.56139 11.1088 5.30503L10.8746 5.19514L10.6257 6.7391C11.0428 6.92912 11.8113 7.09776 12.6092 7.10515C14.4752 7.10515 15.6901 6.18311 15.7045 4.75625C15.7116 3.97328 15.2363 3.37334 14.2117 2.8831C13.5896 2.5684 13.2087 2.35619 13.2087 2.0342C13.216 1.74147 13.5309 1.44165 14.2331 1.44165C14.8112 1.42696 15.236 1.56593 15.5578 1.705L15.7187 1.77804L15.9605 0.292822Z" fill="black"/>
<path d="M18.3243 4.56604C18.4707 4.17091 19.0343 2.64164 19.0343 2.64164C19.0269 2.65633 19.1805 2.23922 19.2683 1.98316L19.3926 2.57581C19.3926 2.57581 19.7294 4.22216 19.8025 4.56604C19.5245 4.56604 18.6755 4.56604 18.3243 4.56604ZM20.5195 0.124695H19.1439C18.7197 0.124695 18.3974 0.248981 18.2144 0.695363L15.5728 7.00257H17.4388C17.4388 7.00257 17.746 6.15366 17.8121 5.97083C18.0168 5.97083 19.832 5.97083 20.0954 5.97083C20.1465 6.21231 20.3076 7.00257 20.3076 7.00257H21.9543L20.5195 0.124695Z" fill="black"/>
<path d="M6.24966 0.124695L4.508 4.81481L4.31768 3.8636C3.99568 2.76603 2.98583 1.57354 1.85889 0.9806L3.45419 6.99537H5.33483L8.1302 0.124695H6.24966Z" fill="black"/>
<path d="M2.89083 0.124695H0.0295165L0.000244141 0.263666C2.23225 0.834431 3.71046 2.21024 4.31779 3.86389L3.69578 0.702851C3.59337 0.263569 3.27867 0.139185 2.89083 0.124695Z" fill="black"/>
</svg>
