<svg width="16" height="32" viewBox="0 0 16 32" fill="none" xmlns="http://www.w3.org/2000/svg">
<path d="M3 23.8125H11.75C12.9563 23.8125 13.9375 22.8313 13.9375 21.625C13.9375 21.4525 13.7975 21.3125 13.625 21.3125C13.4525 21.3125 13.3125 21.4525 13.3125 21.625C13.3125 22.4862 12.6119 23.1875 11.75 23.1875H3C2.13813 23.1875 1.4375 22.4862 1.4375 21.625V10.375C1.4375 9.84063 1.70625 9.35062 2.155 9.06312C2.16813 9.05437 2.18125 9.045 2.19312 9.035C2.44687 8.8875 2.71812 8.8125 3 8.8125H11.75C12.0312 8.8125 12.3025 8.88687 12.5556 9.03437C12.5681 9.045 12.5806 9.05437 12.595 9.06312C13.0438 9.35062 13.3125 9.84063 13.3125 10.375V13.5C13.3125 13.6725 13.4525 13.8125 13.625 13.8125C13.7975 13.8125 13.9375 13.6725 13.9375 13.5V11.9375H14.25C14.4219 11.9375 14.5625 12.0775 14.5625 12.25V14.125C14.5625 14.2975 14.4219 14.4375 14.25 14.4375H13.625C13.4525 14.4375 13.3125 14.5775 13.3125 14.75C13.3125 14.9225 13.4525 15.0625 13.625 15.0625H14.25C14.7669 15.0625 15.1875 14.6419 15.1875 14.125V12.25C15.1875 11.7331 14.7669 11.3125 14.25 11.3125H13.9375V10.375C13.9375 9.64562 13.58 8.97375 12.9788 8.5675C12.9631 8.55312 12.9456 8.53938 12.9269 8.52813C12.5662 8.305 12.1587 8.1875 11.75 8.1875H3C2.59125 8.1875 2.18375 8.305 1.82313 8.52813C1.80563 8.53938 1.78875 8.55188 1.77375 8.56688C1.77125 8.56875 1.76938 8.57125 1.76688 8.57313L1.76625 8.57375C1.16812 8.97938 0.8125 9.6475 0.8125 10.375V21.625C0.8125 22.8313 1.79375 23.8125 3 23.8125Z" fill="#3D3F47"/>
<path d="M2.49937 7.54812C2.53062 7.55812 2.56249 7.5625 2.59312 7.5625C2.72624 7.5625 2.84874 7.4775 2.89124 7.34375C2.93312 7.21062 2.97124 7.07312 3.00999 6.9375H10.5C10.6725 6.9375 10.8125 6.7975 10.8125 6.625C10.8125 6.4525 10.6725 6.3125 10.5 6.3125H3.17937C3.28437 5.89625 3.37812 5.4775 3.46062 5.0625H9.87499C10.0475 5.0625 10.1875 4.9225 10.1875 4.75C10.1875 4.5775 10.0475 4.4375 9.87499 4.4375H3.57812C3.65437 4.00312 3.71999 3.58313 3.77499 3.1875H9.87499C10.0475 3.1875 10.1875 3.0475 10.1875 2.875C10.1875 2.7025 10.0475 2.5625 9.87499 2.5625H3.85624C3.87312 2.42562 3.88999 2.28812 3.90374 2.16125C3.96124 1.6775 4.36249 1.3125 4.83749 1.3125H9.94999C10.4256 1.3125 10.8262 1.6775 10.8831 2.15937C11.11 4.19937 11.4487 5.99125 11.8637 7.34187C11.9137 7.50687 12.0906 7.60063 12.2537 7.54938C12.4194 7.49875 12.5112 7.32375 12.4606 7.15875C12.0575 5.845 11.7269 4.0925 11.5037 2.08875C11.41 1.28937 10.7425 0.6875 9.94999 0.6875H4.83749C4.04499 0.6875 3.37749 1.28938 3.28312 2.09C3.13124 3.45438 2.83562 5.44063 2.29562 7.15563C2.24374 7.32063 2.33499 7.49625 2.49937 7.54812Z" fill="#3D3F47"/>
<path d="M10.8125 25.375C10.8125 25.2025 10.6725 25.0625 10.5 25.0625H3.01063C2.97125 24.9263 2.93375 24.7894 2.89187 24.6563C2.84 24.4919 2.66563 24.4006 2.5 24.4519C2.335 24.5038 2.24438 24.6794 2.29625 24.8438C2.83625 26.5594 3.13187 28.5456 3.28437 29.9113C3.37812 30.71 4.04625 31.3119 4.83812 31.3119H9.95062C10.7431 31.3119 11.4106 30.71 11.505 29.9088C11.7275 27.9069 12.0588 26.1544 12.4613 24.8406C12.5119 24.6756 12.42 24.5013 12.2544 24.45C12.09 24.3988 11.9144 24.4919 11.8644 24.6575C11.4494 26.0075 11.1106 27.7994 10.8844 29.8375C10.8269 30.3213 10.4262 30.6863 9.95062 30.6863H4.83812C4.3625 30.6863 3.96187 30.3213 3.905 29.8394C3.89062 29.7119 3.87375 29.5738 3.85688 29.4363H9.875C10.0475 29.4363 10.1875 29.2963 10.1875 29.1238C10.1875 28.9513 10.0475 28.8113 9.875 28.8113H3.775C3.72 28.4156 3.65437 27.9956 3.57812 27.5613H9.875C10.0475 27.5613 10.1875 27.4213 10.1875 27.2488C10.1875 27.0763 10.0475 26.9363 9.875 26.9363H3.46062C3.37812 26.5213 3.28438 26.1025 3.17938 25.6863H10.5C10.6725 25.6875 10.8125 25.5475 10.8125 25.375Z" fill="#3D3F47"/>
<path d="M13.3125 17.25V20.375C13.3125 20.5475 13.4525 20.6875 13.625 20.6875C13.7975 20.6875 13.9375 20.5475 13.9375 20.375V17.25C13.9375 17.0775 13.7975 16.9375 13.625 16.9375C13.4525 16.9375 13.3125 17.0775 13.3125 17.25Z" fill="#3D3F47"/>
<path d="M13.6263 16.3138C13.7988 16.3138 13.9388 16.1738 13.9388 16.0013C13.9388 15.8287 13.7988 15.6888 13.6263 15.6888C13.4537 15.6888 13.3138 15.8287 13.3138 16.0013C13.3138 16.1738 13.4537 16.3138 13.6263 16.3138Z" fill="#3D3F47"/>
</svg>
